<?xml version="1.0" encoding="UTF-8" ?>
<svg version="1.1" width="64" height="64" xmlns="http://www.w3.org/2000/svg" shape-rendering="crispEdges">
<rect x="22" y="0" width="20" height="1" fill="#000000" />
<rect x="19" y="1" width="3" height="1" fill="#000000" />
<rect x="22" y="1" width="20" height="10" fill="#60427E" />
<rect x="42" y="1" width="3" height="1" fill="#000000" />
<rect x="17" y="2" width="2" height="1" fill="#000000" />
<rect x="19" y="2" width="3" height="60" fill="#60427E" />
<rect x="42" y="2" width="3" height="58" fill="#60427E" />
<rect x="45" y="2" width="2" height="1" fill="#000000" />
<rect x="14" y="3" width="3" height="1" fill="#000000" />
<rect x="17" y="3" width="2" height="58" fill="#60427E" />
<rect x="45" y="3" width="2" height="56" fill="#60427E" />
<rect x="47" y="3" width="3" height="1" fill="#000000" />
<rect x="13" y="4" width="2" height="1" fill="#000000" />
<rect x="15" y="4" width="2" height="56" fill="#60427E" />
<rect x="47" y="4" width="2" height="54" fill="#60427E" />
<rect x="49" y="4" width="2" height="1" fill="#000000" />
<rect x="12" y="5" width="2" height="1" fill="#000000" />
<rect x="14" y="5" width="1" height="54" fill="#60427E" />
<rect x="49" y="5" width="1" height="53" fill="#60427E" />
<rect x="50" y="5" width="2" height="1" fill="#000000" />
<rect x="10" y="6" width="3" height="1" fill="#000000" />
<rect x="13" y="6" width="1" height="52" fill="#60427E" />
<rect x="50" y="6" width="1" height="50" fill="#60427E" />
<rect x="51" y="6" width="3" height="1" fill="#000000" />
<rect x="9" y="7" width="2" height="1" fill="#000000" />
<rect x="11" y="7" width="2" height="50" fill="#60427E" />
<rect x="51" y="7" width="2" height="48" fill="#60427E" />
<rect x="53" y="7" width="2" height="1" fill="#000000" />
<rect x="8" y="8" width="2" height="1" fill="#000000" />
<rect x="10" y="8" width="1" height="48" fill="#60427E" />
<rect x="53" y="8" width="1" height="47" fill="#60427E" />
<rect x="54" y="8" width="2" height="1" fill="#000000" />
<rect x="7" y="9" width="2" height="1" fill="#000000" />
<rect x="9" y="9" width="1" height="46" fill="#60427E" />
<rect x="54" y="9" width="1" height="44" fill="#60427E" />
<rect x="55" y="9" width="2" height="1" fill="#000000" />
<rect x="6" y="10" width="2" height="1" fill="#000000" />
<rect x="8" y="10" width="1" height="44" fill="#60427E" />
<rect x="55" y="10" width="1" height="42" fill="#60427E" />
<rect x="56" y="10" width="2" height="1" fill="#000000" />
<rect x="6" y="11" width="1" height="2" fill="#000000" />
<rect x="7" y="11" width="1" height="42" fill="#60427E" />
<rect x="22" y="11" width="5" height="52" fill="#60427E" />
<rect x="27" y="11" width="9" height="8" fill="#DFBAFF" />
<rect x="36" y="11" width="1" height="8" fill="#30213F" />
<rect x="37" y="11" width="5" height="52" fill="#60427E" />
<rect x="56" y="11" width="1" height="40" fill="#60427E" />
<rect x="57" y="11" width="1" height="2" fill="#000000" />
<rect x="5" y="12" width="1" height="2" fill="#000000" />
<rect x="58" y="12" width="1" height="2" fill="#000000" />
<rect x="4" y="13" width="1" height="2" fill="#000000" />
<rect x="6" y="13" width="1" height="38" fill="#60427E" />
<rect x="57" y="13" width="1" height="37" fill="#60427E" />
<rect x="59" y="13" width="1" height="2" fill="#000000" />
<rect x="3" y="14" width="1" height="3" fill="#000000" />
<rect x="5" y="14" width="1" height="36" fill="#60427E" />
<rect x="58" y="14" width="1" height="34" fill="#60427E" />
<rect x="60" y="14" width="1" height="3" fill="#000000" />
<rect x="4" y="15" width="1" height="34" fill="#60427E" />
<rect x="59" y="15" width="1" height="31" fill="#60427E" />
<rect x="2" y="17" width="1" height="2" fill="#000000" />
<rect x="3" y="17" width="1" height="30" fill="#60427E" />
<rect x="60" y="17" width="1" height="26" fill="#60427E" />
<rect x="61" y="17" width="1" height="2" fill="#000000" />
<rect x="1" y="19" width="1" height="3" fill="#000000" />
<rect x="2" y="19" width="1" height="26" fill="#60427E" />
<rect x="27" y="19" width="10" height="4" fill="#60427E" />
<rect x="61" y="19" width="1" height="22" fill="#60427E" />
<rect x="62" y="19" width="1" height="3" fill="#000000" />
<rect x="0" y="22" width="1" height="20" fill="#000000" />
<rect x="1" y="22" width="1" height="20" fill="#60427E" />
<rect x="62" y="22" width="1" height="20" fill="#30213F" />
<rect x="63" y="22" width="1" height="20" fill="#000000" />
<rect x="27" y="23" width="9" height="28" fill="#DFBAFF" />
<rect x="36" y="23" width="1" height="30" fill="#30213F" />
<rect x="61" y="41" width="1" height="4" fill="#30213F" />
<rect x="1" y="42" width="1" height="3" fill="#000000" />
<rect x="62" y="42" width="1" height="3" fill="#000000" />
<rect x="60" y="43" width="1" height="4" fill="#30213F" />
<rect x="2" y="45" width="1" height="2" fill="#000000" />
<rect x="61" y="45" width="1" height="2" fill="#000000" />
<rect x="59" y="46" width="1" height="3" fill="#30213F" />
<rect x="3" y="47" width="1" height="3" fill="#000000" />
<rect x="60" y="47" width="1" height="3" fill="#000000" />
<rect x="58" y="48" width="1" height="2" fill="#30213F" />
<rect x="4" y="49" width="1" height="2" fill="#000000" />
<rect x="59" y="49" width="1" height="2" fill="#000000" />
<rect x="5" y="50" width="1" height="2" fill="#000000" />
<rect x="57" y="50" width="1" height="1" fill="#30213F" />
<rect x="58" y="50" width="1" height="2" fill="#000000" />
<rect x="6" y="51" width="1" height="3" fill="#000000" />
<rect x="27" y="51" width="8" height="1" fill="#DFBAFF" />
<rect x="35" y="51" width="1" height="2" fill="#30213F" />
<rect x="56" y="51" width="1" height="2" fill="#30213F" />
<rect x="57" y="51" width="1" height="3" fill="#000000" />
<rect x="27" y="52" width="7" height="1" fill="#DFBAFF" />
<rect x="34" y="52" width="1" height="1" fill="#30213F" />
<rect x="55" y="52" width="1" height="2" fill="#30213F" />
<rect x="7" y="53" width="1" height="2" fill="#000000" />
<rect x="27" y="53" width="10" height="10" fill="#60427E" />
<rect x="54" y="53" width="1" height="2" fill="#30213F" />
<rect x="56" y="53" width="1" height="2" fill="#000000" />
<rect x="8" y="54" width="1" height="2" fill="#000000" />
<rect x="55" y="54" width="1" height="2" fill="#000000" />
<rect x="9" y="55" width="1" height="2" fill="#000000" />
<rect x="51" y="55" width="1" height="1" fill="#60427E" />
<rect x="52" y="55" width="2" height="1" fill="#30213F" />
<rect x="54" y="55" width="1" height="2" fill="#000000" />
<rect x="10" y="56" width="1" height="2" fill="#000000" />
<rect x="50" y="56" width="3" height="1" fill="#30213F" />
<rect x="53" y="56" width="1" height="2" fill="#000000" />
<rect x="11" y="57" width="2" height="1" fill="#000000" />
<rect x="50" y="57" width="1" height="1" fill="#30213F" />
<rect x="51" y="57" width="2" height="1" fill="#000000" />
<rect x="12" y="58" width="2" height="1" fill="#000000" />
<rect x="47" y="58" width="1" height="1" fill="#60427E" />
<rect x="48" y="58" width="2" height="1" fill="#30213F" />
<rect x="50" y="58" width="2" height="1" fill="#000000" />
<rect x="13" y="59" width="2" height="1" fill="#000000" />
<rect x="45" y="59" width="1" height="1" fill="#60427E" />
<rect x="46" y="59" width="3" height="1" fill="#30213F" />
<rect x="49" y="59" width="2" height="1" fill="#000000" />
<rect x="14" y="60" width="3" height="1" fill="#000000" />
<rect x="42" y="60" width="2" height="1" fill="#60427E" />
<rect x="44" y="60" width="3" height="1" fill="#30213F" />
<rect x="47" y="60" width="3" height="1" fill="#000000" />
<rect x="17" y="61" width="2" height="1" fill="#000000" />
<rect x="42" y="61" width="3" height="1" fill="#30213F" />
<rect x="45" y="61" width="2" height="1" fill="#000000" />
<rect x="19" y="62" width="3" height="1" fill="#000000" />
<rect x="42" y="62" width="3" height="1" fill="#000000" />
<rect x="22" y="63" width="20" height="1" fill="#000000" />
</svg>