<?xml version="1.0" encoding="UTF-8" ?>
<svg version="1.1" width="66" height="54" xmlns="http://www.w3.org/2000/svg" shape-rendering="crispEdges">
<rect x="0" y="0" width="66" height="1" fill="#000000" />
<rect x="0" y="1" width="1" height="53" fill="#000000" />
<rect x="1" y="1" width="64" height="1" fill="#60427E" />
<rect x="65" y="1" width="1" height="53" fill="#000000" />
<rect x="1" y="2" width="1" height="51" fill="#60427E" />
<rect x="2" y="2" width="62" height="1" fill="#000000" />
<rect x="64" y="2" width="1" height="51" fill="#60427E" />
<rect x="2" y="3" width="1" height="4" fill="#000000" />
<rect x="3" y="3" width="3" height="1" fill="#60427E" />
<rect x="6" y="3" width="1" height="4" fill="#000000" />
<rect x="7" y="3" width="3" height="1" fill="#60427E" />
<rect x="10" y="3" width="1" height="4" fill="#000000" />
<rect x="11" y="3" width="3" height="1" fill="#60427E" />
<rect x="14" y="3" width="1" height="4" fill="#000000" />
<rect x="18" y="3" width="1" height="4" fill="#000000" />
<rect x="19" y="3" width="42" height="1" fill="#60427E" />
<rect x="61" y="3" width="1" height="4" fill="#000000" />
<rect x="63" y="3" width="1" height="4" fill="#000000" />
<rect x="3" y="4" width="1" height="2" fill="#60427E" />
<rect x="4" y="4" width="1" height="1" fill="#000000" />
<rect x="5" y="4" width="1" height="2" fill="#60427E" />
<rect x="7" y="4" width="1" height="2" fill="#60427E" />
<rect x="8" y="4" width="1" height="1" fill="#000000" />
<rect x="9" y="4" width="1" height="2" fill="#60427E" />
<rect x="11" y="4" width="1" height="2" fill="#60427E" />
<rect x="12" y="4" width="1" height="1" fill="#000000" />
<rect x="13" y="4" width="1" height="2" fill="#60427E" />
<rect x="19" y="4" width="1" height="2" fill="#60427E" />
<rect x="20" y="4" width="40" height="1" fill="#000000" />
<rect x="60" y="4" width="1" height="2" fill="#60427E" />
<rect x="4" y="5" width="1" height="1" fill="#60427E" />
<rect x="8" y="5" width="1" height="1" fill="#60427E" />
<rect x="12" y="5" width="1" height="1" fill="#60427E" />
<rect x="20" y="5" width="40" height="1" fill="#60427E" />
<rect x="3" y="6" width="3" height="1" fill="#000000" />
<rect x="7" y="6" width="3" height="1" fill="#000000" />
<rect x="11" y="6" width="3" height="1" fill="#000000" />
<rect x="15" y="6" width="3" height="1" fill="#000000" />
<rect x="19" y="6" width="42" height="1" fill="#000000" />
<rect x="62" y="6" width="1" height="1" fill="#000000" />
<rect x="2" y="7" width="62" height="1" fill="#60427E" />
<rect x="2" y="8" width="62" height="1" fill="#000000" />
<rect x="2" y="9" width="1" height="43" fill="#000000" />
<rect x="4" y="9" width="1" height="26" fill="#000000" />
<rect x="5" y="9" width="56" height="1" fill="#60427E" />
<rect x="61" y="9" width="1" height="26" fill="#000000" />
<rect x="63" y="9" width="1" height="43" fill="#000000" />
<rect x="5" y="10" width="1" height="25" fill="#60427E" />
<rect x="6" y="10" width="54" height="1" fill="#000000" />
<rect x="60" y="10" width="1" height="25" fill="#60427E" />
<rect x="6" y="11" width="1" height="23" fill="#000000" />
<rect x="15" y="11" width="6" height="1" fill="#000000" />
<rect x="50" y="11" width="3" height="1" fill="#000000" />
<rect x="59" y="11" width="1" height="23" fill="#000000" />
<rect x="13" y="12" width="2" height="1" fill="#000000" />
<rect x="15" y="12" width="6" height="1" fill="#60427E" />
<rect x="21" y="12" width="2" height="1" fill="#000000" />
<rect x="46" y="12" width="2" height="1" fill="#000000" />
<rect x="49" y="12" width="1" height="1" fill="#000000" />
<rect x="50" y="12" width="3" height="5" fill="#60427E" />
<rect x="53" y="12" width="1" height="1" fill="#000000" />
<rect x="55" y="12" width="2" height="1" fill="#000000" />
<rect x="12" y="13" width="1" height="1" fill="#000000" />
<rect x="13" y="13" width="2" height="1" fill="#60427E" />
<rect x="15" y="13" width="6" height="1" fill="#000000" />
<rect x="21" y="13" width="2" height="1" fill="#60427E" />
<rect x="23" y="13" width="1" height="1" fill="#000000" />
<rect x="45" y="13" width="1" height="1" fill="#000000" />
<rect x="46" y="13" width="2" height="13" fill="#60427E" />
<rect x="48" y="13" width="1" height="1" fill="#000000" />
<rect x="49" y="13" width="1" height="5" fill="#60427E" />
<rect x="53" y="13" width="1" height="5" fill="#60427E" />
<rect x="54" y="13" width="1" height="1" fill="#000000" />
<rect x="55" y="13" width="2" height="13" fill="#60427E" />
<rect x="57" y="13" width="1" height="1" fill="#000000" />
<rect x="11" y="14" width="1" height="1" fill="#000000" />
<rect x="12" y="14" width="1" height="1" fill="#60427E" />
<rect x="13" y="14" width="2" height="1" fill="#000000" />
<rect x="16" y="14" width="1" height="1" fill="#000000" />
<rect x="17" y="14" width="2" height="6" fill="#60427E" />
<rect x="19" y="14" width="1" height="1" fill="#000000" />
<rect x="21" y="14" width="2" height="1" fill="#000000" />
<rect x="23" y="14" width="1" height="1" fill="#60427E" />
<rect x="24" y="14" width="1" height="1" fill="#000000" />
<rect x="44" y="14" width="1" height="2" fill="#000000" />
<rect x="45" y="14" width="1" height="2" fill="#60427E" />
<rect x="48" y="14" width="1" height="11" fill="#60427E" />
<rect x="54" y="14" width="1" height="11" fill="#60427E" />
<rect x="57" y="14" width="1" height="2" fill="#60427E" />
<rect x="58" y="14" width="1" height="2" fill="#000000" />
<rect x="10" y="15" width="1" height="1" fill="#000000" />
<rect x="11" y="15" width="1" height="1" fill="#60427E" />
<rect x="12" y="15" width="1" height="1" fill="#000000" />
<rect x="15" y="15" width="1" height="1" fill="#000000" />
<rect x="16" y="15" width="1" height="4" fill="#60427E" />
<rect x="19" y="15" width="1" height="4" fill="#60427E" />
<rect x="20" y="15" width="1" height="1" fill="#000000" />
<rect x="23" y="15" width="1" height="1" fill="#000000" />
<rect x="24" y="15" width="1" height="1" fill="#60427E" />
<rect x="25" y="15" width="1" height="1" fill="#000000" />
<rect x="9" y="16" width="1" height="1" fill="#000000" />
<rect x="10" y="16" width="1" height="1" fill="#60427E" />
<rect x="11" y="16" width="1" height="1" fill="#000000" />
<rect x="14" y="16" width="1" height="2" fill="#000000" />
<rect x="15" y="16" width="1" height="2" fill="#60427E" />
<rect x="20" y="16" width="1" height="2" fill="#60427E" />
<rect x="21" y="16" width="1" height="2" fill="#000000" />
<rect x="24" y="16" width="1" height="1" fill="#000000" />
<rect x="25" y="16" width="1" height="1" fill="#60427E" />
<rect x="26" y="16" width="1" height="1" fill="#000000" />
<rect x="45" y="16" width="1" height="1" fill="#000000" />
<rect x="57" y="16" width="1" height="1" fill="#000000" />
<rect x="8" y="17" width="1" height="2" fill="#000000" />
<rect x="9" y="17" width="1" height="2" fill="#60427E" />
<rect x="10" y="17" width="1" height="2" fill="#000000" />
<rect x="25" y="17" width="1" height="2" fill="#000000" />
<rect x="26" y="17" width="1" height="2" fill="#60427E" />
<rect x="27" y="17" width="1" height="2" fill="#000000" />
<rect x="44" y="17" width="1" height="1" fill="#000000" />
<rect x="45" y="17" width="1" height="5" fill="#60427E" />
<rect x="50" y="17" width="3" height="1" fill="#000000" />
<rect x="57" y="17" width="1" height="5" fill="#60427E" />
<rect x="58" y="17" width="1" height="1" fill="#000000" />
<rect x="15" y="18" width="1" height="1" fill="#000000" />
<rect x="20" y="18" width="1" height="1" fill="#000000" />
<rect x="35" y="18" width="2" height="1" fill="#000000" />
<rect x="43" y="18" width="1" height="3" fill="#000000" />
<rect x="44" y="18" width="1" height="3" fill="#60427E" />
<rect x="49" y="18" width="1" height="3" fill="#000000" />
<rect x="53" y="18" width="1" height="3" fill="#000000" />
<rect x="58" y="18" width="1" height="3" fill="#60427E" />
<rect x="7" y="19" width="1" height="6" fill="#000000" />
<rect x="8" y="19" width="1" height="6" fill="#60427E" />
<rect x="9" y="19" width="1" height="6" fill="#000000" />
<rect x="16" y="19" width="1" height="2" fill="#000000" />
<rect x="19" y="19" width="1" height="2" fill="#000000" />
<rect x="26" y="19" width="1" height="6" fill="#000000" />
<rect x="27" y="19" width="1" height="6" fill="#60427E" />
<rect x="28" y="19" width="1" height="8" fill="#000000" />
<rect x="31" y="19" width="2" height="1" fill="#000000" />
<rect x="34" y="19" width="1" height="1" fill="#000000" />
<rect x="35" y="19" width="2" height="5" fill="#60427E" />
<rect x="37" y="19" width="1" height="1" fill="#000000" />
<rect x="39" y="19" width="2" height="1" fill="#000000" />
<rect x="17" y="20" width="2" height="1" fill="#000000" />
<rect x="30" y="20" width="1" height="1" fill="#000000" />
<rect x="31" y="20" width="2" height="12" fill="#60427E" />
<rect x="33" y="20" width="1" height="1" fill="#000000" />
<rect x="34" y="20" width="1" height="5" fill="#60427E" />
<rect x="37" y="20" width="1" height="5" fill="#60427E" />
<rect x="38" y="20" width="1" height="1" fill="#000000" />
<rect x="39" y="20" width="2" height="12" fill="#60427E" />
<rect x="41" y="20" width="1" height="1" fill="#000000" />
<rect x="15" y="21" width="1" height="1" fill="#000000" />
<rect x="16" y="21" width="4" height="11" fill="#60427E" />
<rect x="20" y="21" width="1" height="1" fill="#000000" />
<rect x="29" y="21" width="1" height="2" fill="#000000" />
<rect x="30" y="21" width="1" height="2" fill="#60427E" />
<rect x="33" y="21" width="1" height="10" fill="#60427E" />
<rect x="38" y="21" width="1" height="10" fill="#60427E" />
<rect x="41" y="21" width="1" height="2" fill="#60427E" />
<rect x="42" y="21" width="1" height="2" fill="#000000" />
<rect x="44" y="21" width="1" height="1" fill="#000000" />
<rect x="49" y="21" width="1" height="5" fill="#60427E" />
<rect x="50" y="21" width="3" height="1" fill="#000000" />
<rect x="53" y="21" width="1" height="5" fill="#60427E" />
<rect x="58" y="21" width="1" height="1" fill="#000000" />
<rect x="14" y="22" width="1" height="1" fill="#000000" />
<rect x="15" y="22" width="1" height="10" fill="#60427E" />
<rect x="20" y="22" width="1" height="10" fill="#60427E" />
<rect x="21" y="22" width="1" height="1" fill="#000000" />
<rect x="45" y="22" width="1" height="1" fill="#000000" />
<rect x="50" y="22" width="3" height="5" fill="#60427E" />
<rect x="57" y="22" width="1" height="1" fill="#000000" />
<rect x="13" y="23" width="1" height="1" fill="#000000" />
<rect x="14" y="23" width="1" height="8" fill="#60427E" />
<rect x="21" y="23" width="1" height="8" fill="#60427E" />
<rect x="22" y="23" width="1" height="1" fill="#000000" />
<rect x="30" y="23" width="1" height="1" fill="#000000" />
<rect x="41" y="23" width="1" height="1" fill="#000000" />
<rect x="44" y="23" width="1" height="2" fill="#000000" />
<rect x="45" y="23" width="1" height="2" fill="#60427E" />
<rect x="57" y="23" width="1" height="2" fill="#60427E" />
<rect x="58" y="23" width="1" height="2" fill="#000000" />
<rect x="12" y="24" width="1" height="5" fill="#000000" />
<rect x="13" y="24" width="1" height="7" fill="#60427E" />
<rect x="22" y="24" width="1" height="7" fill="#60427E" />
<rect x="23" y="24" width="1" height="5" fill="#000000" />
<rect x="29" y="24" width="1" height="1" fill="#000000" />
<rect x="30" y="24" width="1" height="4" fill="#60427E" />
<rect x="35" y="24" width="2" height="1" fill="#000000" />
<rect x="41" y="24" width="1" height="4" fill="#60427E" />
<rect x="42" y="24" width="1" height="1" fill="#000000" />
<rect x="8" y="25" width="1" height="2" fill="#000000" />
<rect x="9" y="25" width="1" height="2" fill="#60427E" />
<rect x="10" y="25" width="1" height="2" fill="#000000" />
<rect x="25" y="25" width="1" height="2" fill="#000000" />
<rect x="26" y="25" width="1" height="2" fill="#60427E" />
<rect x="27" y="25" width="1" height="2" fill="#000000" />
<rect x="29" y="25" width="1" height="2" fill="#60427E" />
<rect x="34" y="25" width="1" height="2" fill="#000000" />
<rect x="37" y="25" width="1" height="2" fill="#000000" />
<rect x="42" y="25" width="1" height="2" fill="#60427E" />
<rect x="43" y="25" width="1" height="2" fill="#000000" />
<rect x="45" y="25" width="1" height="1" fill="#000000" />
<rect x="48" y="25" width="1" height="1" fill="#000000" />
<rect x="54" y="25" width="1" height="1" fill="#000000" />
<rect x="57" y="25" width="1" height="1" fill="#000000" />
<rect x="46" y="26" width="2" height="1" fill="#000000" />
<rect x="49" y="26" width="1" height="1" fill="#000000" />
<rect x="53" y="26" width="1" height="1" fill="#000000" />
<rect x="55" y="26" width="2" height="1" fill="#000000" />
<rect x="9" y="27" width="1" height="1" fill="#000000" />
<rect x="10" y="27" width="1" height="1" fill="#60427E" />
<rect x="11" y="27" width="1" height="1" fill="#000000" />
<rect x="24" y="27" width="1" height="1" fill="#000000" />
<rect x="25" y="27" width="1" height="1" fill="#60427E" />
<rect x="26" y="27" width="1" height="1" fill="#000000" />
<rect x="29" y="27" width="1" height="1" fill="#000000" />
<rect x="34" y="27" width="1" height="5" fill="#60427E" />
<rect x="35" y="27" width="2" height="1" fill="#000000" />
<rect x="37" y="27" width="1" height="5" fill="#60427E" />
<rect x="42" y="27" width="1" height="1" fill="#000000" />
<rect x="50" y="27" width="3" height="1" fill="#000000" />
<rect x="10" y="28" width="1" height="1" fill="#000000" />
<rect x="11" y="28" width="1" height="1" fill="#60427E" />
<rect x="24" y="28" width="1" height="1" fill="#60427E" />
<rect x="25" y="28" width="1" height="1" fill="#000000" />
<rect x="30" y="28" width="1" height="1" fill="#000000" />
<rect x="35" y="28" width="2" height="5" fill="#60427E" />
<rect x="41" y="28" width="1" height="1" fill="#000000" />
<rect x="11" y="29" width="1" height="1" fill="#000000" />
<rect x="12" y="29" width="1" height="1" fill="#60427E" />
<rect x="23" y="29" width="1" height="1" fill="#60427E" />
<rect x="24" y="29" width="1" height="1" fill="#000000" />
<rect x="29" y="29" width="1" height="2" fill="#000000" />
<rect x="30" y="29" width="1" height="2" fill="#60427E" />
<rect x="41" y="29" width="1" height="2" fill="#60427E" />
<rect x="42" y="29" width="1" height="2" fill="#000000" />
<rect x="12" y="30" width="1" height="1" fill="#000000" />
<rect x="23" y="30" width="1" height="1" fill="#000000" />
<rect x="13" y="31" width="2" height="1" fill="#000000" />
<rect x="21" y="31" width="2" height="1" fill="#000000" />
<rect x="30" y="31" width="1" height="1" fill="#000000" />
<rect x="33" y="31" width="1" height="1" fill="#000000" />
<rect x="38" y="31" width="1" height="1" fill="#000000" />
<rect x="41" y="31" width="1" height="1" fill="#000000" />
<rect x="15" y="32" width="6" height="2" fill="#000000" />
<rect x="31" y="32" width="2" height="2" fill="#000000" />
<rect x="34" y="32" width="1" height="2" fill="#000000" />
<rect x="37" y="32" width="1" height="2" fill="#000000" />
<rect x="39" y="32" width="2" height="2" fill="#000000" />
<rect x="7" y="33" width="8" height="1" fill="#000000" />
<rect x="21" y="33" width="10" height="1" fill="#000000" />
<rect x="33" y="33" width="1" height="1" fill="#000000" />
<rect x="35" y="33" width="2" height="1" fill="#000000" />
<rect x="38" y="33" width="1" height="1" fill="#000000" />
<rect x="41" y="33" width="18" height="1" fill="#000000" />
<rect x="6" y="34" width="54" height="1" fill="#60427E" />
<rect x="5" y="35" width="56" height="1" fill="#000000" />
<rect x="56" y="36" width="4" height="1" fill="#000000" />
<rect x="7" y="37" width="3" height="1" fill="#000000" />
<rect x="50" y="37" width="4" height="1" fill="#000000" />
<rect x="55" y="37" width="1" height="11" fill="#000000" />
<rect x="56" y="37" width="4" height="12" fill="#60427E" />
<rect x="60" y="37" width="1" height="11" fill="#000000" />
<rect x="5" y="38" width="2" height="1" fill="#000000" />
<rect x="7" y="38" width="3" height="3" fill="#60427E" />
<rect x="10" y="38" width="17" height="1" fill="#000000" />
<rect x="49" y="38" width="1" height="10" fill="#000000" />
<rect x="50" y="38" width="4" height="11" fill="#60427E" />
<rect x="54" y="38" width="1" height="10" fill="#000000" />
<rect x="4" y="39" width="1" height="1" fill="#000000" />
<rect x="5" y="39" width="2" height="1" fill="#60427E" />
<rect x="10" y="39" width="17" height="1" fill="#60427E" />
<rect x="27" y="39" width="1" height="1" fill="#000000" />
<rect x="34" y="39" width="4" height="1" fill="#000000" />
<rect x="44" y="39" width="4" height="1" fill="#000000" />
<rect x="5" y="40" width="2" height="2" fill="#000000" />
<rect x="10" y="40" width="17" height="1" fill="#000000" />
<rect x="33" y="40" width="1" height="8" fill="#000000" />
<rect x="34" y="40" width="4" height="9" fill="#60427E" />
<rect x="38" y="40" width="1" height="8" fill="#000000" />
<rect x="43" y="40" width="1" height="8" fill="#000000" />
<rect x="44" y="40" width="4" height="9" fill="#60427E" />
<rect x="48" y="40" width="1" height="8" fill="#000000" />
<rect x="7" y="41" width="13" height="1" fill="#000000" />
<rect x="20" y="41" width="3" height="3" fill="#60427E" />
<rect x="23" y="41" width="4" height="1" fill="#000000" />
<rect x="29" y="41" width="4" height="1" fill="#000000" />
<rect x="4" y="42" width="1" height="1" fill="#000000" />
<rect x="5" y="42" width="15" height="1" fill="#60427E" />
<rect x="23" y="42" width="4" height="1" fill="#60427E" />
<rect x="27" y="42" width="2" height="1" fill="#000000" />
<rect x="29" y="42" width="4" height="7" fill="#60427E" />
<rect x="5" y="43" width="15" height="1" fill="#000000" />
<rect x="23" y="43" width="4" height="2" fill="#000000" />
<rect x="28" y="43" width="1" height="5" fill="#000000" />
<rect x="39" y="43" width="4" height="1" fill="#000000" />
<rect x="5" y="44" width="5" height="1" fill="#000000" />
<rect x="10" y="44" width="3" height="3" fill="#60427E" />
<rect x="13" y="44" width="10" height="1" fill="#000000" />
<rect x="39" y="44" width="4" height="5" fill="#60427E" />
<rect x="4" y="45" width="1" height="1" fill="#000000" />
<rect x="5" y="45" width="5" height="1" fill="#60427E" />
<rect x="13" y="45" width="14" height="1" fill="#60427E" />
<rect x="27" y="45" width="1" height="1" fill="#000000" />
<rect x="5" y="46" width="5" height="2" fill="#000000" />
<rect x="13" y="46" width="14" height="1" fill="#000000" />
<rect x="10" y="47" width="13" height="1" fill="#000000" />
<rect x="23" y="47" width="3" height="3" fill="#60427E" />
<rect x="26" y="47" width="1" height="1" fill="#000000" />
<rect x="4" y="48" width="1" height="1" fill="#000000" />
<rect x="5" y="48" width="18" height="1" fill="#60427E" />
<rect x="26" y="48" width="1" height="1" fill="#60427E" />
<rect x="27" y="48" width="1" height="1" fill="#000000" />
<rect x="28" y="48" width="1" height="1" fill="#60427E" />
<rect x="33" y="48" width="1" height="1" fill="#60427E" />
<rect x="38" y="48" width="1" height="1" fill="#60427E" />
<rect x="43" y="48" width="1" height="1" fill="#60427E" />
<rect x="48" y="48" width="2" height="1" fill="#60427E" />
<rect x="54" y="48" width="2" height="1" fill="#60427E" />
<rect x="60" y="48" width="1" height="1" fill="#60427E" />
<rect x="61" y="48" width="1" height="1" fill="#000000" />
<rect x="5" y="49" width="18" height="1" fill="#000000" />
<rect x="26" y="49" width="1" height="1" fill="#000000" />
<rect x="28" y="49" width="33" height="1" fill="#000000" />
<rect x="23" y="50" width="3" height="2" fill="#000000" />
<rect x="3" y="51" width="20" height="1" fill="#000000" />
<rect x="26" y="51" width="37" height="1" fill="#000000" />
<rect x="2" y="52" width="62" height="1" fill="#60427E" />
<rect x="1" y="53" width="64" height="1" fill="#000000" />
</svg>