<?xml version="1.0" encoding="UTF-8" ?>
<svg version="1.1" width="66" height="50" xmlns="http://www.w3.org/2000/svg" shape-rendering="crispEdges">
<rect x="0" y="0" width="66" height="1" fill="#000000" />
<rect x="0" y="1" width="1" height="49" fill="#000000" />
<rect x="1" y="1" width="64" height="1" fill="#60427E" />
<rect x="65" y="1" width="1" height="49" fill="#000000" />
<rect x="1" y="2" width="1" height="47" fill="#60427E" />
<rect x="64" y="2" width="1" height="47" fill="#60427E" />
<rect x="3" y="3" width="3" height="1" fill="#60427E" />
<rect x="7" y="3" width="3" height="1" fill="#60427E" />
<rect x="11" y="3" width="3" height="1" fill="#60427E" />
<rect x="19" y="3" width="42" height="1" fill="#60427E" />
<rect x="3" y="4" width="1" height="2" fill="#60427E" />
<rect x="5" y="4" width="1" height="2" fill="#60427E" />
<rect x="7" y="4" width="1" height="2" fill="#60427E" />
<rect x="9" y="4" width="1" height="2" fill="#60427E" />
<rect x="11" y="4" width="1" height="2" fill="#60427E" />
<rect x="13" y="4" width="1" height="2" fill="#60427E" />
<rect x="19" y="4" width="1" height="2" fill="#60427E" />
<rect x="60" y="4" width="1" height="2" fill="#60427E" />
<rect x="4" y="5" width="1" height="1" fill="#60427E" />
<rect x="8" y="5" width="1" height="1" fill="#60427E" />
<rect x="12" y="5" width="1" height="1" fill="#60427E" />
<rect x="20" y="5" width="40" height="1" fill="#60427E" />
<rect x="2" y="7" width="62" height="1" fill="#60427E" />
<rect x="5" y="9" width="56" height="1" fill="#60427E" />
<rect x="5" y="10" width="1" height="23" fill="#60427E" />
<rect x="60" y="10" width="1" height="23" fill="#60427E" />
<rect x="14" y="11" width="6" height="1" fill="#60427E" />
<rect x="50" y="11" width="3" height="5" fill="#60427E" />
<rect x="12" y="12" width="2" height="1" fill="#60427E" />
<rect x="20" y="12" width="2" height="1" fill="#60427E" />
<rect x="46" y="12" width="2" height="13" fill="#60427E" />
<rect x="49" y="12" width="1" height="5" fill="#60427E" />
<rect x="53" y="12" width="1" height="5" fill="#60427E" />
<rect x="55" y="12" width="2" height="13" fill="#60427E" />
<rect x="11" y="13" width="1" height="1" fill="#60427E" />
<rect x="16" y="13" width="2" height="6" fill="#60427E" />
<rect x="22" y="13" width="1" height="1" fill="#60427E" />
<rect x="45" y="13" width="1" height="2" fill="#60427E" />
<rect x="48" y="13" width="1" height="11" fill="#60427E" />
<rect x="54" y="13" width="1" height="11" fill="#60427E" />
<rect x="57" y="13" width="1" height="2" fill="#60427E" />
<rect x="10" y="14" width="1" height="1" fill="#60427E" />
<rect x="15" y="14" width="1" height="4" fill="#60427E" />
<rect x="18" y="14" width="1" height="4" fill="#60427E" />
<rect x="23" y="14" width="1" height="1" fill="#60427E" />
<rect x="9" y="15" width="1" height="1" fill="#60427E" />
<rect x="14" y="15" width="1" height="2" fill="#60427E" />
<rect x="19" y="15" width="1" height="2" fill="#60427E" />
<rect x="24" y="15" width="1" height="1" fill="#60427E" />
<rect x="8" y="16" width="1" height="2" fill="#60427E" />
<rect x="25" y="16" width="1" height="2" fill="#60427E" />
<rect x="45" y="16" width="1" height="5" fill="#60427E" />
<rect x="57" y="16" width="1" height="5" fill="#60427E" />
<rect x="36" y="17" width="2" height="5" fill="#60427E" />
<rect x="44" y="17" width="1" height="3" fill="#60427E" />
<rect x="58" y="17" width="1" height="3" fill="#60427E" />
<rect x="7" y="18" width="1" height="6" fill="#60427E" />
<rect x="26" y="18" width="1" height="6" fill="#60427E" />
<rect x="32" y="18" width="2" height="12" fill="#60427E" />
<rect x="35" y="18" width="1" height="5" fill="#60427E" />
<rect x="38" y="18" width="1" height="5" fill="#60427E" />
<rect x="40" y="18" width="2" height="12" fill="#60427E" />
<rect x="31" y="19" width="1" height="2" fill="#60427E" />
<rect x="34" y="19" width="1" height="10" fill="#60427E" />
<rect x="39" y="19" width="1" height="10" fill="#60427E" />
<rect x="42" y="19" width="1" height="2" fill="#60427E" />
<rect x="15" y="20" width="4" height="11" fill="#60427E" />
<rect x="49" y="20" width="1" height="5" fill="#60427E" />
<rect x="53" y="20" width="1" height="5" fill="#60427E" />
<rect x="14" y="21" width="1" height="9" fill="#60427E" />
<rect x="19" y="21" width="1" height="9" fill="#60427E" />
<rect x="50" y="21" width="3" height="5" fill="#60427E" />
<rect x="13" y="22" width="1" height="8" fill="#60427E" />
<rect x="20" y="22" width="1" height="8" fill="#60427E" />
<rect x="31" y="22" width="1" height="4" fill="#60427E" />
<rect x="42" y="22" width="1" height="4" fill="#60427E" />
<rect x="45" y="22" width="1" height="2" fill="#60427E" />
<rect x="57" y="22" width="1" height="2" fill="#60427E" />
<rect x="12" y="23" width="1" height="7" fill="#60427E" />
<rect x="21" y="23" width="1" height="7" fill="#60427E" />
<rect x="30" y="23" width="1" height="2" fill="#60427E" />
<rect x="43" y="23" width="1" height="2" fill="#60427E" />
<rect x="8" y="24" width="1" height="2" fill="#60427E" />
<rect x="25" y="24" width="1" height="2" fill="#60427E" />
<rect x="35" y="25" width="1" height="5" fill="#60427E" />
<rect x="38" y="25" width="1" height="5" fill="#60427E" />
<rect x="9" y="26" width="1" height="1" fill="#60427E" />
<rect x="24" y="26" width="1" height="1" fill="#60427E" />
<rect x="36" y="26" width="2" height="5" fill="#60427E" />
<rect x="10" y="27" width="1" height="1" fill="#60427E" />
<rect x="23" y="27" width="1" height="1" fill="#60427E" />
<rect x="31" y="27" width="1" height="2" fill="#60427E" />
<rect x="42" y="27" width="1" height="2" fill="#60427E" />
<rect x="11" y="28" width="1" height="1" fill="#60427E" />
<rect x="22" y="28" width="1" height="1" fill="#60427E" />
<rect x="6" y="32" width="54" height="1" fill="#60427E" />
<rect x="56" y="34" width="4" height="12" fill="#60427E" />
<rect x="7" y="35" width="3" height="3" fill="#60427E" />
<rect x="50" y="35" width="4" height="11" fill="#60427E" />
<rect x="5" y="36" width="2" height="1" fill="#60427E" />
<rect x="10" y="36" width="17" height="1" fill="#60427E" />
<rect x="34" y="37" width="4" height="9" fill="#60427E" />
<rect x="44" y="37" width="4" height="9" fill="#60427E" />
<rect x="20" y="38" width="3" height="3" fill="#60427E" />
<rect x="5" y="39" width="15" height="1" fill="#60427E" />
<rect x="23" y="39" width="4" height="1" fill="#60427E" />
<rect x="29" y="39" width="4" height="7" fill="#60427E" />
<rect x="10" y="41" width="3" height="3" fill="#60427E" />
<rect x="39" y="41" width="4" height="5" fill="#60427E" />
<rect x="5" y="42" width="5" height="1" fill="#60427E" />
<rect x="13" y="42" width="14" height="1" fill="#60427E" />
<rect x="23" y="44" width="3" height="3" fill="#60427E" />
<rect x="5" y="45" width="18" height="1" fill="#60427E" />
<rect x="26" y="45" width="1" height="1" fill="#60427E" />
<rect x="28" y="45" width="1" height="1" fill="#60427E" />
<rect x="33" y="45" width="1" height="1" fill="#60427E" />
<rect x="38" y="45" width="1" height="1" fill="#60427E" />
<rect x="43" y="45" width="1" height="1" fill="#60427E" />
<rect x="48" y="45" width="2" height="1" fill="#60427E" />
<rect x="54" y="45" width="2" height="1" fill="#60427E" />
<rect x="60" y="45" width="1" height="1" fill="#60427E" />
<rect x="2" y="48" width="62" height="1" fill="#60427E" />
<rect x="1" y="49" width="64" height="1" fill="#000000" />
</svg>