<?xml version="1.0" encoding="UTF-8" ?>
<svg version="1.1" width="28" height="23" xmlns="http://www.w3.org/2000/svg" shape-rendering="crispEdges">
<rect x="1" y="0" width="5" height="1" fill="#000000" />
<rect x="0" y="1" width="1" height="1" fill="#000000" />
<rect x="1" y="1" width="5" height="1" fill="#60427E" />
<rect x="6" y="1" width="1" height="1" fill="#000000" />
<rect x="1" y="2" width="5" height="1" fill="#000000" />
<rect x="6" y="2" width="1" height="1" fill="#60427E" />
<rect x="7" y="2" width="1" height="2" fill="#000000" />
<rect x="4" y="3" width="1" height="1" fill="#000000" />
<rect x="5" y="3" width="1" height="1" fill="#60427E" />
<rect x="6" y="3" width="1" height="1" fill="#000000" />
<rect x="8" y="3" width="18" height="1" fill="#000000" />
<rect x="5" y="4" width="1" height="1" fill="#000000" />
<rect x="6" y="4" width="20" height="1" fill="#60427E" />
<rect x="26" y="4" width="1" height="1" fill="#000000" />
<rect x="4" y="5" width="1" height="2" fill="#000000" />
<rect x="5" y="5" width="1" height="2" fill="#60427E" />
<rect x="8" y="5" width="1" height="8" fill="#60427E" />
<rect x="11" y="5" width="1" height="10" fill="#60427E" />
<rect x="14" y="5" width="1" height="10" fill="#60427E" />
<rect x="17" y="5" width="1" height="10" fill="#60427E" />
<rect x="20" y="5" width="1" height="10" fill="#60427E" />
<rect x="23" y="5" width="1" height="10" fill="#60427E" />
<rect x="26" y="5" width="1" height="6" fill="#60427E" />
<rect x="27" y="5" width="1" height="6" fill="#000000" />
<rect x="5" y="7" width="1" height="2" fill="#000000" />
<rect x="6" y="7" width="2" height="1" fill="#60427E" />
<rect x="9" y="7" width="2" height="1" fill="#60427E" />
<rect x="12" y="7" width="2" height="1" fill="#60427E" />
<rect x="15" y="7" width="2" height="1" fill="#60427E" />
<rect x="18" y="7" width="2" height="1" fill="#60427E" />
<rect x="21" y="7" width="2" height="1" fill="#60427E" />
<rect x="24" y="7" width="2" height="1" fill="#60427E" />
<rect x="6" y="8" width="1" height="1" fill="#60427E" />
<rect x="6" y="9" width="1" height="2" fill="#000000" />
<rect x="7" y="9" width="1" height="2" fill="#60427E" />
<rect x="9" y="10" width="2" height="1" fill="#60427E" />
<rect x="12" y="10" width="2" height="1" fill="#60427E" />
<rect x="15" y="10" width="2" height="1" fill="#60427E" />
<rect x="18" y="10" width="2" height="1" fill="#60427E" />
<rect x="21" y="10" width="2" height="1" fill="#60427E" />
<rect x="24" y="10" width="2" height="1" fill="#60427E" />
<rect x="7" y="11" width="1" height="2" fill="#000000" />
<rect x="25" y="11" width="1" height="2" fill="#60427E" />
<rect x="26" y="11" width="1" height="2" fill="#000000" />
<rect x="24" y="12" width="1" height="2" fill="#60427E" />
<rect x="8" y="13" width="1" height="2" fill="#000000" />
<rect x="9" y="13" width="2" height="2" fill="#60427E" />
<rect x="12" y="13" width="2" height="2" fill="#60427E" />
<rect x="15" y="13" width="2" height="2" fill="#60427E" />
<rect x="18" y="13" width="2" height="2" fill="#60427E" />
<rect x="21" y="13" width="2" height="2" fill="#60427E" />
<rect x="25" y="13" width="1" height="1" fill="#000000" />
<rect x="24" y="14" width="1" height="1" fill="#000000" />
<rect x="7" y="15" width="1" height="1" fill="#000000" />
<rect x="8" y="15" width="1" height="1" fill="#60427E" />
<rect x="9" y="15" width="15" height="1" fill="#000000" />
<rect x="6" y="16" width="1" height="2" fill="#000000" />
<rect x="7" y="16" width="1" height="2" fill="#60427E" />
<rect x="8" y="16" width="1" height="2" fill="#000000" />
<rect x="9" y="17" width="16" height="1" fill="#000000" />
<rect x="7" y="18" width="1" height="1" fill="#000000" />
<rect x="8" y="18" width="17" height="1" fill="#60427E" />
<rect x="25" y="18" width="1" height="1" fill="#000000" />
<rect x="8" y="19" width="17" height="1" fill="#000000" />
<rect x="9" y="20" width="1" height="2" fill="#000000" />
<rect x="10" y="20" width="2" height="2" fill="#60427E" />
<rect x="12" y="20" width="1" height="2" fill="#000000" />
<rect x="19" y="20" width="1" height="2" fill="#000000" />
<rect x="20" y="20" width="2" height="2" fill="#60427E" />
<rect x="22" y="20" width="1" height="2" fill="#000000" />
<rect x="10" y="22" width="2" height="1" fill="#000000" />
<rect x="20" y="22" width="2" height="1" fill="#000000" />
</svg>