<?xml version="1.0" encoding="UTF-8" ?>
<svg version="1.1" width="320" height="320" xmlns="http://www.w3.org/2000/svg" shape-rendering="crispEdges">
<rect x="20" y="50" width="40" height="10" fill="#000000" />
<rect x="10" y="60" width="10" height="10" fill="#000000" />
<rect x="20" y="60" width="40" height="10" fill="#60427E" />
<rect x="60" y="60" width="10" height="10" fill="#000000" />
<rect x="20" y="70" width="40" height="10" fill="#000000" />
<rect x="60" y="70" width="10" height="10" fill="#60427E" />
<rect x="70" y="70" width="10" height="20" fill="#000000" />
<rect x="40" y="80" width="10" height="10" fill="#000000" />
<rect x="50" y="80" width="10" height="10" fill="#60427E" />
<rect x="60" y="80" width="10" height="10" fill="#000000" />
<rect x="80" y="80" width="180" height="10" fill="#000000" />
<rect x="50" y="90" width="10" height="10" fill="#000000" />
<rect x="60" y="90" width="200" height="10" fill="#60427E" />
<rect x="260" y="90" width="10" height="10" fill="#000000" />
<rect x="40" y="100" width="10" height="20" fill="#000000" />
<rect x="50" y="100" width="10" height="20" fill="#60427E" />
<rect x="80" y="100" width="10" height="80" fill="#60427E" />
<rect x="110" y="100" width="10" height="100" fill="#60427E" />
<rect x="140" y="100" width="10" height="100" fill="#60427E" />
<rect x="170" y="100" width="10" height="100" fill="#60427E" />
<rect x="200" y="100" width="10" height="100" fill="#60427E" />
<rect x="230" y="100" width="10" height="100" fill="#60427E" />
<rect x="260" y="100" width="10" height="60" fill="#60427E" />
<rect x="270" y="100" width="10" height="60" fill="#000000" />
<rect x="50" y="120" width="10" height="20" fill="#000000" />
<rect x="60" y="120" width="20" height="10" fill="#60427E" />
<rect x="90" y="120" width="20" height="10" fill="#60427E" />
<rect x="120" y="120" width="20" height="10" fill="#60427E" />
<rect x="150" y="120" width="20" height="10" fill="#60427E" />
<rect x="180" y="120" width="20" height="10" fill="#60427E" />
<rect x="210" y="120" width="20" height="10" fill="#60427E" />
<rect x="240" y="120" width="20" height="10" fill="#60427E" />
<rect x="60" y="130" width="10" height="10" fill="#60427E" />
<rect x="60" y="140" width="10" height="20" fill="#000000" />
<rect x="70" y="140" width="10" height="20" fill="#60427E" />
<rect x="90" y="150" width="20" height="10" fill="#60427E" />
<rect x="120" y="150" width="20" height="10" fill="#60427E" />
<rect x="150" y="150" width="20" height="10" fill="#60427E" />
<rect x="180" y="150" width="20" height="10" fill="#60427E" />
<rect x="210" y="150" width="20" height="10" fill="#60427E" />
<rect x="240" y="150" width="20" height="10" fill="#60427E" />
<rect x="70" y="160" width="10" height="20" fill="#000000" />
<rect x="250" y="160" width="10" height="20" fill="#60427E" />
<rect x="260" y="160" width="10" height="20" fill="#000000" />
<rect x="240" y="170" width="10" height="20" fill="#60427E" />
<rect x="80" y="180" width="10" height="20" fill="#000000" />
<rect x="90" y="180" width="20" height="20" fill="#60427E" />
<rect x="120" y="180" width="20" height="20" fill="#60427E" />
<rect x="150" y="180" width="20" height="20" fill="#60427E" />
<rect x="180" y="180" width="20" height="20" fill="#60427E" />
<rect x="210" y="180" width="20" height="20" fill="#60427E" />
<rect x="250" y="180" width="10" height="10" fill="#000000" />
<rect x="240" y="190" width="10" height="10" fill="#000000" />
<rect x="70" y="200" width="10" height="10" fill="#000000" />
<rect x="80" y="200" width="10" height="10" fill="#60427E" />
<rect x="90" y="200" width="150" height="10" fill="#000000" />
<rect x="60" y="210" width="10" height="20" fill="#000000" />
<rect x="70" y="210" width="10" height="20" fill="#60427E" />
<rect x="80" y="210" width="10" height="20" fill="#000000" />
<rect x="90" y="220" width="160" height="10" fill="#000000" />
<rect x="70" y="230" width="10" height="10" fill="#000000" />
<rect x="80" y="230" width="170" height="10" fill="#60427E" />
<rect x="250" y="230" width="10" height="10" fill="#000000" />
<rect x="80" y="240" width="170" height="10" fill="#000000" />
<rect x="90" y="250" width="10" height="20" fill="#000000" />
<rect x="100" y="250" width="20" height="20" fill="#60427E" />
<rect x="120" y="250" width="10" height="20" fill="#000000" />
<rect x="190" y="250" width="10" height="20" fill="#000000" />
<rect x="200" y="250" width="20" height="20" fill="#60427E" />
<rect x="220" y="250" width="10" height="20" fill="#000000" />
<rect x="100" y="270" width="20" height="10" fill="#000000" />
<rect x="200" y="270" width="20" height="10" fill="#000000" />
</svg>