<?xml version="1.0" encoding="UTF-8" ?>
<svg version="1.1" width="64" height="64" xmlns="http://www.w3.org/2000/svg" shape-rendering="crispEdges">
<rect x="13" y="0" width="42" height="1" fill="#000000" />
<rect x="13" y="1" width="1" height="2" fill="#000000" />
<rect x="14" y="1" width="40" height="2" fill="#74499F" />
<rect x="54" y="1" width="1" height="3" fill="#000000" />
<rect x="11" y="2" width="2" height="1" fill="#000000" />
<rect x="8" y="3" width="4" height="1" fill="#000000" />
<rect x="12" y="3" width="5" height="1" fill="#74499F" />
<rect x="17" y="3" width="35" height="1" fill="#60427E" />
<rect x="52" y="3" width="2" height="2" fill="#74499F" />
<rect x="55" y="3" width="3" height="1" fill="#000000" />
<rect x="8" y="4" width="1" height="2" fill="#000000" />
<rect x="9" y="4" width="7" height="1" fill="#74499F" />
<rect x="16" y="4" width="35" height="6" fill="#60427E" />
<rect x="51" y="4" width="1" height="1" fill="#74499F" />
<rect x="54" y="4" width="4" height="3" fill="#74499F" />
<rect x="58" y="4" width="1" height="2" fill="#000000" />
<rect x="9" y="5" width="6" height="1" fill="#74499F" />
<rect x="15" y="5" width="1" height="17" fill="#60427E" />
<rect x="51" y="5" width="2" height="13" fill="#60427E" />
<rect x="53" y="5" width="1" height="1" fill="#74499F" />
<rect x="7" y="6" width="1" height="1" fill="#000000" />
<rect x="8" y="6" width="6" height="1" fill="#74499F" />
<rect x="14" y="6" width="1" height="16" fill="#60427E" />
<rect x="53" y="6" width="1" height="15" fill="#60427E" />
<rect x="58" y="6" width="1" height="5" fill="#74499F" />
<rect x="59" y="6" width="1" height="1" fill="#000000" />
<rect x="5" y="7" width="2" height="1" fill="#000000" />
<rect x="7" y="7" width="5" height="1" fill="#74499F" />
<rect x="12" y="7" width="2" height="16" fill="#60427E" />
<rect x="54" y="7" width="2" height="15" fill="#60427E" />
<rect x="56" y="7" width="2" height="2" fill="#74499F" />
<rect x="59" y="7" width="1" height="6" fill="#74499F" />
<rect x="60" y="7" width="1" height="1" fill="#000000" />
<rect x="5" y="8" width="1" height="1" fill="#000000" />
<rect x="6" y="8" width="5" height="1" fill="#74499F" />
<rect x="11" y="8" width="1" height="15" fill="#60427E" />
<rect x="60" y="8" width="1" height="6" fill="#74499F" />
<rect x="61" y="8" width="1" height="2" fill="#000000" />
<rect x="4" y="9" width="1" height="15" fill="#000000" />
<rect x="5" y="9" width="4" height="2" fill="#74499F" />
<rect x="9" y="9" width="2" height="15" fill="#60427E" />
<rect x="56" y="9" width="2" height="13" fill="#60427E" />
<rect x="62" y="9" width="1" height="3" fill="#000000" />
<rect x="16" y="10" width="7" height="1" fill="#60427E" />
<rect x="23" y="10" width="17" height="1" fill="#000000" />
<rect x="40" y="10" width="11" height="1" fill="#60427E" />
<rect x="61" y="10" width="1" height="8" fill="#74499F" />
<rect x="5" y="11" width="2" height="1" fill="#74499F" />
<rect x="7" y="11" width="2" height="13" fill="#60427E" />
<rect x="16" y="11" width="6" height="1" fill="#60427E" />
<rect x="22" y="11" width="1" height="1" fill="#000000" />
<rect x="39" y="11" width="5" height="1" fill="#000000" />
<rect x="44" y="11" width="7" height="1" fill="#60427E" />
<rect x="58" y="11" width="1" height="12" fill="#60427E" />
<rect x="0" y="12" width="4" height="4" fill="#000000" />
<rect x="5" y="12" width="1" height="3" fill="#74499F" />
<rect x="6" y="12" width="1" height="12" fill="#60427E" />
<rect x="16" y="12" width="5" height="3" fill="#60427E" />
<rect x="21" y="12" width="1" height="9" fill="#000000" />
<rect x="44" y="12" width="2" height="1" fill="#000000" />
<rect x="46" y="12" width="5" height="1" fill="#60427E" />
<rect x="62" y="12" width="1" height="6" fill="#74499F" />
<rect x="63" y="12" width="1" height="12" fill="#000000" />
<rect x="46" y="13" width="1" height="2" fill="#000000" />
<rect x="47" y="13" width="4" height="1" fill="#60427E" />
<rect x="59" y="13" width="1" height="10" fill="#60427E" />
<rect x="47" y="14" width="1" height="5" fill="#000000" />
<rect x="48" y="14" width="3" height="2" fill="#60427E" />
<rect x="60" y="14" width="1" height="9" fill="#60427E" />
<rect x="5" y="15" width="1" height="9" fill="#60427E" />
<rect x="16" y="15" width="4" height="2" fill="#60427E" />
<rect x="20" y="15" width="1" height="5" fill="#30213F" />
<rect x="25" y="16" width="19" height="1" fill="#000000" />
<rect x="48" y="16" width="1" height="2" fill="#30213F" />
<rect x="49" y="16" width="2" height="1" fill="#60427E" />
<rect x="16" y="17" width="3" height="1" fill="#60427E" />
<rect x="19" y="17" width="1" height="4" fill="#30213F" />
<rect x="25" y="17" width="1" height="2" fill="#000000" />
<rect x="26" y="17" width="17" height="2" fill="#30213F" />
<rect x="43" y="17" width="1" height="2" fill="#000000" />
<rect x="49" y="17" width="2" height="1" fill="#30213F" />
<rect x="0" y="18" width="2" height="10" fill="#000000" />
<rect x="16" y="18" width="2" height="1" fill="#60427E" />
<rect x="18" y="18" width="1" height="4" fill="#30213F" />
<rect x="22" y="18" width="3" height="1" fill="#000000" />
<rect x="44" y="18" width="3" height="1" fill="#000000" />
<rect x="48" y="18" width="2" height="1" fill="#000000" />
<rect x="50" y="18" width="2" height="3" fill="#30213F" />
<rect x="52" y="18" width="1" height="2" fill="#60427E" />
<rect x="61" y="18" width="2" height="5" fill="#60427E" />
<rect x="2" y="19" width="1" height="11" fill="#000000" />
<rect x="16" y="19" width="1" height="1" fill="#60427E" />
<rect x="17" y="19" width="1" height="3" fill="#30213F" />
<rect x="22" y="19" width="27" height="5" fill="#60427E" />
<rect x="49" y="19" width="1" height="2" fill="#000000" />
<rect x="16" y="20" width="1" height="4" fill="#30213F" />
<rect x="20" y="20" width="1" height="2" fill="#000000" />
<rect x="52" y="20" width="1" height="4" fill="#30213F" />
<rect x="19" y="21" width="1" height="1" fill="#000000" />
<rect x="21" y="21" width="1" height="13" fill="#60427E" />
<rect x="49" y="21" width="1" height="40" fill="#60427E" />
<rect x="50" y="21" width="1" height="1" fill="#000000" />
<rect x="51" y="21" width="1" height="1" fill="#30213F" />
<rect x="53" y="21" width="1" height="3" fill="#30213F" />
<rect x="14" y="22" width="2" height="2" fill="#30213F" />
<rect x="17" y="22" width="2" height="1" fill="#000000" />
<rect x="19" y="22" width="2" height="39" fill="#60427E" />
<rect x="50" y="22" width="1" height="38" fill="#60427E" />
<rect x="51" y="22" width="1" height="3" fill="#000000" />
<rect x="54" y="22" width="3" height="2" fill="#30213F" />
<rect x="57" y="22" width="1" height="1" fill="#60427E" />
<rect x="11" y="23" width="3" height="1" fill="#30213F" />
<rect x="17" y="23" width="1" height="1" fill="#000000" />
<rect x="18" y="23" width="1" height="38" fill="#60427E" />
<rect x="57" y="23" width="4" height="2" fill="#30213F" />
<rect x="61" y="23" width="1" height="1" fill="#60427E" />
<rect x="62" y="23" width="1" height="1" fill="#30213F" />
<rect x="3" y="24" width="1" height="7" fill="#000000" />
<rect x="5" y="24" width="4" height="1" fill="#000000" />
<rect x="9" y="24" width="2" height="2" fill="#30213F" />
<rect x="11" y="24" width="6" height="1" fill="#000000" />
<rect x="17" y="24" width="1" height="37" fill="#60427E" />
<rect x="22" y="24" width="9" height="1" fill="#60427E" />
<rect x="31" y="24" width="6" height="1" fill="#000000" />
<rect x="37" y="24" width="12" height="1" fill="#60427E" />
<rect x="52" y="24" width="4" height="1" fill="#000000" />
<rect x="56" y="24" width="1" height="2" fill="#30213F" />
<rect x="61" y="24" width="2" height="1" fill="#000000" />
<rect x="8" y="25" width="1" height="2" fill="#000000" />
<rect x="11" y="25" width="1" height="2" fill="#000000" />
<rect x="13" y="25" width="1" height="6" fill="#000000" />
<rect x="14" y="25" width="3" height="35" fill="#60427E" />
<rect x="22" y="25" width="4" height="2" fill="#60427E" />
<rect x="26" y="25" width="5" height="1" fill="#000000" />
<rect x="31" y="25" width="2" height="1" fill="#60427E" />
<rect x="33" y="25" width="2" height="4" fill="#30213F" />
<rect x="35" y="25" width="2" height="1" fill="#60427E" />
<rect x="37" y="25" width="5" height="1" fill="#000000" />
<rect x="42" y="25" width="7" height="2" fill="#60427E" />
<rect x="51" y="25" width="2" height="35" fill="#60427E" />
<rect x="53" y="25" width="1" height="2" fill="#000000" />
<rect x="55" y="25" width="1" height="2" fill="#000000" />
<rect x="57" y="25" width="3" height="1" fill="#30213F" />
<rect x="60" y="25" width="1" height="1" fill="#000000" />
<rect x="9" y="26" width="2" height="1" fill="#000000" />
<rect x="26" y="26" width="1" height="2" fill="#000000" />
<rect x="27" y="26" width="5" height="3" fill="#60427E" />
<rect x="32" y="26" width="1" height="2" fill="#30213F" />
<rect x="35" y="26" width="1" height="2" fill="#30213F" />
<rect x="36" y="26" width="5" height="2" fill="#60427E" />
<rect x="41" y="26" width="1" height="2" fill="#000000" />
<rect x="56" y="26" width="4" height="1" fill="#000000" />
<rect x="4" y="27" width="1" height="6" fill="#000000" />
<rect x="22" y="27" width="3" height="1" fill="#60427E" />
<rect x="25" y="27" width="1" height="2" fill="#000000" />
<rect x="42" y="27" width="1" height="2" fill="#000000" />
<rect x="43" y="27" width="6" height="1" fill="#60427E" />
<rect x="53" y="27" width="1" height="32" fill="#60427E" />
<rect x="54" y="27" width="1" height="1" fill="#000000" />
<rect x="5" y="28" width="2" height="6" fill="#000000" />
<rect x="22" y="28" width="2" height="1" fill="#60427E" />
<rect x="24" y="28" width="1" height="2" fill="#000000" />
<rect x="26" y="28" width="1" height="1" fill="#60427E" />
<rect x="32" y="28" width="1" height="1" fill="#60427E" />
<rect x="35" y="28" width="5" height="1" fill="#60427E" />
<rect x="40" y="28" width="2" height="4" fill="#30213F" />
<rect x="43" y="28" width="2" height="1" fill="#000000" />
<rect x="45" y="28" width="4" height="1" fill="#60427E" />
<rect x="54" y="28" width="1" height="31" fill="#60427E" />
<rect x="55" y="28" width="1" height="36" fill="#000000" />
<rect x="22" y="29" width="1" height="4" fill="#60427E" />
<rect x="23" y="29" width="1" height="5" fill="#000000" />
<rect x="25" y="29" width="1" height="1" fill="#60427E" />
<rect x="26" y="29" width="2" height="4" fill="#30213F" />
<rect x="28" y="29" width="4" height="1" fill="#60427E" />
<rect x="32" y="29" width="5" height="17" fill="#000000" />
<rect x="37" y="29" width="2" height="1" fill="#60427E" />
<rect x="39" y="29" width="1" height="2" fill="#30213F" />
<rect x="42" y="29" width="1" height="2" fill="#30213F" />
<rect x="43" y="29" width="1" height="16" fill="#60427E" />
<rect x="44" y="29" width="2" height="1" fill="#000000" />
<rect x="46" y="29" width="3" height="5" fill="#60427E" />
<rect x="7" y="30" width="4" height="4" fill="#000000" />
<rect x="12" y="30" width="1" height="2" fill="#000000" />
<rect x="24" y="30" width="1" height="6" fill="#60427E" />
<rect x="25" y="30" width="1" height="2" fill="#30213F" />
<rect x="28" y="30" width="1" height="2" fill="#30213F" />
<rect x="29" y="30" width="1" height="1" fill="#60427E" />
<rect x="30" y="30" width="2" height="14" fill="#000000" />
<rect x="37" y="30" width="2" height="15" fill="#000000" />
<rect x="44" y="30" width="1" height="17" fill="#60427E" />
<rect x="45" y="30" width="1" height="4" fill="#000000" />
<rect x="11" y="31" width="1" height="33" fill="#000000" />
<rect x="13" y="31" width="1" height="28" fill="#60427E" />
<rect x="29" y="31" width="1" height="13" fill="#000000" />
<rect x="39" y="31" width="1" height="13" fill="#000000" />
<rect x="42" y="31" width="1" height="4" fill="#60427E" />
<rect x="12" y="32" width="1" height="27" fill="#60427E" />
<rect x="25" y="32" width="1" height="5" fill="#60427E" />
<rect x="28" y="32" width="1" height="12" fill="#000000" />
<rect x="40" y="32" width="1" height="12" fill="#000000" />
<rect x="41" y="32" width="1" height="1" fill="#60427E" />
<rect x="22" y="33" width="1" height="1" fill="#000000" />
<rect x="26" y="33" width="1" height="2" fill="#60427E" />
<rect x="27" y="33" width="1" height="9" fill="#000000" />
<rect x="41" y="33" width="1" height="9" fill="#000000" />
<rect x="8" y="34" width="3" height="2" fill="#000000" />
<rect x="21" y="34" width="1" height="8" fill="#000000" />
<rect x="22" y="34" width="2" height="2" fill="#60427E" />
<rect x="45" y="34" width="1" height="8" fill="#60427E" />
<rect x="46" y="34" width="1" height="8" fill="#000000" />
<rect x="47" y="34" width="2" height="27" fill="#60427E" />
<rect x="26" y="35" width="1" height="5" fill="#000000" />
<rect x="42" y="35" width="1" height="5" fill="#000000" />
<rect x="22" y="36" width="1" height="1" fill="#60427E" />
<rect x="23" y="36" width="2" height="4" fill="#30213F" />
<rect x="22" y="37" width="1" height="2" fill="#30213F" />
<rect x="25" y="37" width="1" height="2" fill="#30213F" />
<rect x="22" y="39" width="1" height="3" fill="#60427E" />
<rect x="25" y="39" width="1" height="8" fill="#60427E" />
<rect x="23" y="40" width="2" height="6" fill="#60427E" />
<rect x="26" y="40" width="1" height="5" fill="#60427E" />
<rect x="42" y="40" width="1" height="4" fill="#60427E" />
<rect x="21" y="42" width="1" height="19" fill="#60427E" />
<rect x="22" y="42" width="1" height="5" fill="#000000" />
<rect x="27" y="42" width="1" height="2" fill="#60427E" />
<rect x="41" y="42" width="1" height="2" fill="#60427E" />
<rect x="45" y="42" width="1" height="5" fill="#000000" />
<rect x="46" y="42" width="1" height="19" fill="#60427E" />
<rect x="27" y="44" width="2" height="4" fill="#30213F" />
<rect x="29" y="44" width="2" height="1" fill="#60427E" />
<rect x="31" y="44" width="1" height="1" fill="#000000" />
<rect x="39" y="44" width="2" height="1" fill="#60427E" />
<rect x="41" y="44" width="2" height="4" fill="#30213F" />
<rect x="26" y="45" width="1" height="2" fill="#30213F" />
<rect x="29" y="45" width="1" height="2" fill="#30213F" />
<rect x="30" y="45" width="2" height="5" fill="#60427E" />
<rect x="37" y="45" width="3" height="5" fill="#60427E" />
<rect x="40" y="45" width="1" height="2" fill="#30213F" />
<rect x="43" y="45" width="1" height="2" fill="#30213F" />
<rect x="23" y="46" width="2" height="1" fill="#000000" />
<rect x="32" y="46" width="1" height="1" fill="#60427E" />
<rect x="33" y="46" width="2" height="4" fill="#30213F" />
<rect x="35" y="46" width="2" height="1" fill="#60427E" />
<rect x="22" y="47" width="2" height="15" fill="#60427E" />
<rect x="24" y="47" width="2" height="1" fill="#000000" />
<rect x="26" y="47" width="1" height="1" fill="#60427E" />
<rect x="29" y="47" width="1" height="3" fill="#60427E" />
<rect x="32" y="47" width="1" height="2" fill="#30213F" />
<rect x="35" y="47" width="1" height="2" fill="#30213F" />
<rect x="36" y="47" width="1" height="4" fill="#60427E" />
<rect x="40" y="47" width="1" height="3" fill="#60427E" />
<rect x="43" y="47" width="2" height="1" fill="#000000" />
<rect x="45" y="47" width="1" height="15" fill="#60427E" />
<rect x="24" y="48" width="1" height="14" fill="#60427E" />
<rect x="25" y="48" width="2" height="1" fill="#000000" />
<rect x="27" y="48" width="2" height="2" fill="#60427E" />
<rect x="41" y="48" width="1" height="1" fill="#60427E" />
<rect x="42" y="48" width="1" height="2" fill="#000000" />
<rect x="43" y="48" width="2" height="14" fill="#60427E" />
<rect x="25" y="49" width="1" height="14" fill="#60427E" />
<rect x="26" y="49" width="1" height="2" fill="#000000" />
<rect x="32" y="49" width="1" height="2" fill="#60427E" />
<rect x="35" y="49" width="1" height="2" fill="#60427E" />
<rect x="41" y="49" width="1" height="2" fill="#000000" />
<rect x="27" y="50" width="4" height="1" fill="#000000" />
<rect x="31" y="50" width="1" height="1" fill="#60427E" />
<rect x="33" y="50" width="2" height="1" fill="#60427E" />
<rect x="37" y="50" width="4" height="1" fill="#000000" />
<rect x="42" y="50" width="1" height="13" fill="#60427E" />
<rect x="26" y="51" width="5" height="12" fill="#60427E" />
<rect x="31" y="51" width="6" height="1" fill="#000000" />
<rect x="37" y="51" width="5" height="12" fill="#60427E" />
<rect x="31" y="52" width="6" height="11" fill="#60427E" />
<rect x="12" y="59" width="2" height="4" fill="#30213F" />
<rect x="53" y="59" width="2" height="4" fill="#30213F" />
<rect x="14" y="60" width="3" height="3" fill="#30213F" />
<rect x="50" y="60" width="3" height="3" fill="#30213F" />
<rect x="17" y="61" width="5" height="2" fill="#30213F" />
<rect x="46" y="61" width="4" height="2" fill="#30213F" />
<rect x="22" y="62" width="3" height="1" fill="#30213F" />
<rect x="43" y="62" width="3" height="1" fill="#30213F" />
<rect x="12" y="63" width="43" height="1" fill="#000000" />
</svg>