<?xml version="1.0" encoding="UTF-8" ?>
<svg version="1.1" width="64" height="64" xmlns="http://www.w3.org/2000/svg" shape-rendering="crispEdges">
<rect x="22" y="0" width="20" height="1" fill="#000000" />
<rect x="21" y="1" width="1" height="1" fill="#000000" />
<rect x="22" y="1" width="1" height="2" fill="#30213F" />
<rect x="23" y="1" width="1" height="3" fill="#2C1F3A" />
<rect x="24" y="1" width="4" height="2" fill="#30213F" />
<rect x="28" y="1" width="1" height="3" fill="#2C1F3A" />
<rect x="29" y="1" width="4" height="2" fill="#30213F" />
<rect x="33" y="1" width="1" height="3" fill="#2C1F3A" />
<rect x="34" y="1" width="4" height="2" fill="#30213F" />
<rect x="38" y="1" width="1" height="3" fill="#2C1F3A" />
<rect x="39" y="1" width="3" height="2" fill="#30213F" />
<rect x="42" y="1" width="1" height="1" fill="#000000" />
<rect x="20" y="2" width="1" height="1" fill="#000000" />
<rect x="21" y="2" width="1" height="1" fill="#30213F" />
<rect x="42" y="2" width="1" height="1" fill="#30213F" />
<rect x="43" y="2" width="1" height="1" fill="#000000" />
<rect x="19" y="3" width="1" height="1" fill="#000000" />
<rect x="20" y="3" width="3" height="1" fill="#2C1F3A" />
<rect x="24" y="3" width="4" height="1" fill="#2C1F3A" />
<rect x="29" y="3" width="4" height="1" fill="#2C1F3A" />
<rect x="34" y="3" width="4" height="1" fill="#2C1F3A" />
<rect x="39" y="3" width="5" height="1" fill="#2C1F3A" />
<rect x="44" y="3" width="1" height="1" fill="#000000" />
<rect x="18" y="4" width="1" height="1" fill="#000000" />
<rect x="19" y="4" width="3" height="1" fill="#30213F" />
<rect x="22" y="4" width="1" height="1" fill="#2C1F3A" />
<rect x="23" y="4" width="4" height="2" fill="#30213F" />
<rect x="27" y="4" width="1" height="6" fill="#2C1F3A" />
<rect x="28" y="4" width="6" height="2" fill="#30213F" />
<rect x="34" y="4" width="1" height="3" fill="#2C1F3A" />
<rect x="35" y="4" width="4" height="2" fill="#30213F" />
<rect x="39" y="4" width="1" height="1" fill="#2C1F3A" />
<rect x="40" y="4" width="5" height="1" fill="#30213F" />
<rect x="45" y="4" width="1" height="1" fill="#000000" />
<rect x="17" y="5" width="1" height="1" fill="#000000" />
<rect x="18" y="5" width="3" height="1" fill="#30213F" />
<rect x="21" y="5" width="1" height="2" fill="#2C1F3A" />
<rect x="22" y="5" width="1" height="1" fill="#30213F" />
<rect x="39" y="5" width="1" height="1" fill="#30213F" />
<rect x="40" y="5" width="1" height="2" fill="#2C1F3A" />
<rect x="41" y="5" width="5" height="1" fill="#30213F" />
<rect x="46" y="5" width="1" height="1" fill="#000000" />
<rect x="16" y="6" width="1" height="1" fill="#000000" />
<rect x="17" y="6" width="4" height="1" fill="#2C1F3A" />
<rect x="22" y="6" width="5" height="1" fill="#2C1F3A" />
<rect x="28" y="6" width="6" height="1" fill="#2C1F3A" />
<rect x="35" y="6" width="5" height="1" fill="#2C1F3A" />
<rect x="41" y="6" width="6" height="1" fill="#2C1F3A" />
<rect x="47" y="6" width="1" height="1" fill="#000000" />
<rect x="15" y="7" width="1" height="1" fill="#000000" />
<rect x="16" y="7" width="4" height="2" fill="#30213F" />
<rect x="20" y="7" width="1" height="3" fill="#2C1F3A" />
<rect x="21" y="7" width="6" height="2" fill="#30213F" />
<rect x="28" y="7" width="7" height="2" fill="#30213F" />
<rect x="35" y="7" width="1" height="6" fill="#2C1F3A" />
<rect x="36" y="7" width="5" height="2" fill="#30213F" />
<rect x="41" y="7" width="1" height="1" fill="#2C1F3A" />
<rect x="42" y="7" width="6" height="1" fill="#30213F" />
<rect x="48" y="7" width="1" height="1" fill="#000000" />
<rect x="14" y="8" width="1" height="1" fill="#000000" />
<rect x="15" y="8" width="1" height="1" fill="#30213F" />
<rect x="41" y="8" width="1" height="1" fill="#30213F" />
<rect x="42" y="8" width="1" height="2" fill="#2C1F3A" />
<rect x="43" y="8" width="6" height="1" fill="#30213F" />
<rect x="49" y="8" width="1" height="1" fill="#000000" />
<rect x="13" y="9" width="1" height="1" fill="#000000" />
<rect x="14" y="9" width="6" height="1" fill="#2C1F3A" />
<rect x="21" y="9" width="6" height="1" fill="#2C1F3A" />
<rect x="28" y="9" width="7" height="1" fill="#2C1F3A" />
<rect x="36" y="9" width="6" height="1" fill="#2C1F3A" />
<rect x="43" y="9" width="7" height="1" fill="#2C1F3A" />
<rect x="50" y="9" width="1" height="1" fill="#000000" />
<rect x="12" y="10" width="1" height="1" fill="#000000" />
<rect x="13" y="10" width="6" height="1" fill="#30213F" />
<rect x="19" y="10" width="1" height="1" fill="#2C1F3A" />
<rect x="20" y="10" width="6" height="2" fill="#30213F" />
<rect x="26" y="10" width="1" height="6" fill="#2C1F3A" />
<rect x="27" y="10" width="8" height="2" fill="#30213F" />
<rect x="36" y="10" width="7" height="2" fill="#30213F" />
<rect x="43" y="10" width="1" height="3" fill="#2C1F3A" />
<rect x="44" y="10" width="7" height="2" fill="#30213F" />
<rect x="51" y="10" width="1" height="1" fill="#000000" />
<rect x="11" y="11" width="1" height="1" fill="#000000" />
<rect x="12" y="11" width="6" height="1" fill="#30213F" />
<rect x="18" y="11" width="1" height="2" fill="#2C1F3A" />
<rect x="19" y="11" width="1" height="1" fill="#30213F" />
<rect x="51" y="11" width="1" height="1" fill="#30213F" />
<rect x="52" y="11" width="1" height="1" fill="#000000" />
<rect x="10" y="12" width="1" height="1" fill="#000000" />
<rect x="11" y="12" width="7" height="1" fill="#2C1F3A" />
<rect x="19" y="12" width="7" height="1" fill="#2C1F3A" />
<rect x="27" y="12" width="8" height="1" fill="#2C1F3A" />
<rect x="36" y="12" width="7" height="1" fill="#2C1F3A" />
<rect x="44" y="12" width="9" height="1" fill="#2C1F3A" />
<rect x="53" y="12" width="1" height="1" fill="#000000" />
<rect x="9" y="13" width="1" height="1" fill="#000000" />
<rect x="10" y="13" width="7" height="2" fill="#30213F" />
<rect x="17" y="13" width="1" height="3" fill="#2C1F3A" />
<rect x="18" y="13" width="8" height="2" fill="#30213F" />
<rect x="27" y="13" width="9" height="2" fill="#30213F" />
<rect x="36" y="13" width="1" height="4" fill="#2C1F3A" />
<rect x="37" y="13" width="7" height="2" fill="#30213F" />
<rect x="44" y="13" width="1" height="1" fill="#2C1F3A" />
<rect x="45" y="13" width="9" height="1" fill="#30213F" />
<rect x="54" y="13" width="1" height="1" fill="#000000" />
<rect x="8" y="14" width="1" height="1" fill="#000000" />
<rect x="9" y="14" width="1" height="1" fill="#30213F" />
<rect x="44" y="14" width="1" height="1" fill="#30213F" />
<rect x="45" y="14" width="1" height="2" fill="#2C1F3A" />
<rect x="46" y="14" width="9" height="1" fill="#30213F" />
<rect x="55" y="14" width="1" height="1" fill="#000000" />
<rect x="7" y="15" width="1" height="1" fill="#000000" />
<rect x="8" y="15" width="9" height="1" fill="#2C1F3A" />
<rect x="18" y="15" width="8" height="1" fill="#2C1F3A" />
<rect x="27" y="15" width="9" height="1" fill="#2C1F3A" />
<rect x="37" y="15" width="8" height="1" fill="#2C1F3A" />
<rect x="46" y="15" width="10" height="1" fill="#2C1F3A" />
<rect x="56" y="15" width="1" height="1" fill="#000000" />
<rect x="6" y="16" width="1" height="1" fill="#000000" />
<rect x="7" y="16" width="9" height="1" fill="#30213F" />
<rect x="16" y="16" width="1" height="1" fill="#2C1F3A" />
<rect x="17" y="16" width="8" height="2" fill="#30213F" />
<rect x="25" y="16" width="1" height="6" fill="#2C1F3A" />
<rect x="26" y="16" width="10" height="2" fill="#30213F" />
<rect x="37" y="16" width="9" height="1" fill="#30213F" />
<rect x="46" y="16" width="1" height="1" fill="#2C1F3A" />
<rect x="47" y="16" width="10" height="1" fill="#30213F" />
<rect x="57" y="16" width="1" height="1" fill="#000000" />
<rect x="5" y="17" width="1" height="1" fill="#000000" />
<rect x="6" y="17" width="9" height="1" fill="#30213F" />
<rect x="15" y="17" width="1" height="2" fill="#2C1F3A" />
<rect x="16" y="17" width="1" height="1" fill="#30213F" />
<rect x="36" y="17" width="1" height="1" fill="#30213F" />
<rect x="37" y="17" width="1" height="5" fill="#2C1F3A" />
<rect x="38" y="17" width="9" height="1" fill="#30213F" />
<rect x="47" y="17" width="1" height="2" fill="#2C1F3A" />
<rect x="48" y="17" width="10" height="1" fill="#30213F" />
<rect x="58" y="17" width="1" height="1" fill="#000000" />
<rect x="4" y="18" width="1" height="1" fill="#000000" />
<rect x="5" y="18" width="10" height="1" fill="#2C1F3A" />
<rect x="16" y="18" width="9" height="1" fill="#2C1F3A" />
<rect x="26" y="18" width="11" height="1" fill="#2C1F3A" />
<rect x="38" y="18" width="9" height="1" fill="#2C1F3A" />
<rect x="48" y="18" width="11" height="1" fill="#2C1F3A" />
<rect x="59" y="18" width="1" height="1" fill="#000000" />
<rect x="3" y="19" width="1" height="1" fill="#000000" />
<rect x="4" y="19" width="10" height="2" fill="#30213F" />
<rect x="14" y="19" width="1" height="3" fill="#2C1F3A" />
<rect x="15" y="19" width="10" height="2" fill="#30213F" />
<rect x="26" y="19" width="11" height="2" fill="#30213F" />
<rect x="38" y="19" width="10" height="2" fill="#30213F" />
<rect x="48" y="19" width="1" height="3" fill="#2C1F3A" />
<rect x="49" y="19" width="11" height="2" fill="#30213F" />
<rect x="60" y="19" width="1" height="1" fill="#000000" />
<rect x="2" y="20" width="1" height="1" fill="#000000" />
<rect x="3" y="20" width="1" height="1" fill="#30213F" />
<rect x="60" y="20" width="1" height="1" fill="#30213F" />
<rect x="61" y="20" width="1" height="1" fill="#000000" />
<rect x="1" y="21" width="1" height="1" fill="#000000" />
<rect x="2" y="21" width="12" height="1" fill="#2C1F3A" />
<rect x="15" y="21" width="10" height="1" fill="#2C1F3A" />
<rect x="26" y="21" width="11" height="1" fill="#2C1F3A" />
<rect x="38" y="21" width="10" height="1" fill="#2C1F3A" />
<rect x="49" y="21" width="13" height="1" fill="#2C1F3A" />
<rect x="62" y="21" width="1" height="1" fill="#000000" />
<rect x="0" y="22" width="1" height="1" fill="#000000" />
<rect x="1" y="22" width="12" height="1" fill="#30213F" />
<rect x="13" y="22" width="1" height="1" fill="#2C1F3A" />
<rect x="14" y="22" width="10" height="2" fill="#30213F" />
<rect x="24" y="22" width="1" height="2" fill="#2C1F3A" />
<rect x="25" y="22" width="13" height="2" fill="#30213F" />
<rect x="38" y="22" width="1" height="2" fill="#2C1F3A" />
<rect x="39" y="22" width="10" height="2" fill="#30213F" />
<rect x="49" y="22" width="1" height="1" fill="#2C1F3A" />
<rect x="50" y="22" width="13" height="1" fill="#30213F" />
<rect x="63" y="22" width="1" height="1" fill="#000000" />
<rect x="0" y="23" width="12" height="1" fill="#30213F" />
<rect x="12" y="23" width="1" height="1" fill="#2C1F3A" />
<rect x="13" y="23" width="1" height="1" fill="#30213F" />
<rect x="49" y="23" width="1" height="1" fill="#30213F" />
<rect x="50" y="23" width="1" height="1" fill="#2C1F3A" />
<rect x="51" y="23" width="13" height="1" fill="#30213F" />
<rect x="0" y="24" width="64" height="1" fill="#000000" />
<rect x="6" y="25" width="1" height="39" fill="#000000" />
<rect x="7" y="25" width="51" height="7" fill="#60427E" />
<rect x="58" y="25" width="1" height="39" fill="#000000" />
<rect x="7" y="32" width="8" height="31" fill="#60427E" />
<rect x="15" y="32" width="11" height="1" fill="#332342" />
<rect x="26" y="32" width="12" height="16" fill="#60427E" />
<rect x="38" y="32" width="11" height="1" fill="#332342" />
<rect x="49" y="32" width="9" height="31" fill="#60427E" />
<rect x="15" y="33" width="1" height="10" fill="#332342" />
<rect x="16" y="33" width="9" height="9" fill="#7E5A9E" />
<rect x="25" y="33" width="1" height="10" fill="#332342" />
<rect x="38" y="33" width="1" height="10" fill="#332342" />
<rect x="39" y="33" width="9" height="9" fill="#7E5A9E" />
<rect x="48" y="33" width="1" height="10" fill="#332342" />
<rect x="16" y="42" width="9" height="1" fill="#332342" />
<rect x="39" y="42" width="9" height="1" fill="#332342" />
<rect x="15" y="43" width="11" height="20" fill="#60427E" />
<rect x="38" y="43" width="11" height="20" fill="#60427E" />
<rect x="26" y="48" width="1" height="15" fill="#60427E" />
<rect x="27" y="48" width="10" height="1" fill="#332342" />
<rect x="37" y="48" width="1" height="15" fill="#60427E" />
<rect x="27" y="49" width="1" height="14" fill="#332342" />
<rect x="28" y="49" width="8" height="7" fill="#30213F" />
<rect x="36" y="49" width="1" height="14" fill="#332342" />
<rect x="28" y="56" width="1" height="7" fill="#30213F" />
<rect x="29" y="56" width="1" height="1" fill="#1A1221" />
<rect x="30" y="56" width="6" height="7" fill="#30213F" />
<rect x="29" y="57" width="1" height="6" fill="#30213F" />
<rect x="7" y="63" width="51" height="1" fill="#000000" />
</svg>