<?xml version="1.0" encoding="UTF-8" ?>
<svg version="1.1" width="55" height="62" xmlns="http://www.w3.org/2000/svg" shape-rendering="crispEdges">
<rect x="14" y="0" width="9" height="1" fill="#000000" />
<rect x="11" y="1" width="4" height="1" fill="#000000" />
<rect x="15" y="1" width="7" height="1" fill="#60427E" />
<rect x="22" y="1" width="4" height="1" fill="#000000" />
<rect x="8" y="2" width="4" height="1" fill="#000000" />
<rect x="12" y="2" width="3" height="1" fill="#60427E" />
<rect x="15" y="2" width="7" height="2" fill="#7E5A9E" />
<rect x="22" y="2" width="3" height="1" fill="#60427E" />
<rect x="25" y="2" width="4" height="1" fill="#000000" />
<rect x="6" y="3" width="3" height="1" fill="#000000" />
<rect x="9" y="3" width="3" height="1" fill="#60427E" />
<rect x="12" y="3" width="3" height="2" fill="#7E5A9E" />
<rect x="22" y="3" width="3" height="31" fill="#7E5A9E" />
<rect x="25" y="3" width="3" height="1" fill="#60427E" />
<rect x="28" y="3" width="3" height="1" fill="#000000" />
<rect x="5" y="4" width="2" height="1" fill="#000000" />
<rect x="7" y="4" width="3" height="1" fill="#60427E" />
<rect x="10" y="4" width="2" height="2" fill="#7E5A9E" />
<rect x="15" y="4" width="6" height="2" fill="#A77DCD" />
<rect x="21" y="4" width="1" height="31" fill="#7E5A9E" />
<rect x="25" y="4" width="2" height="29" fill="#7E5A9E" />
<rect x="27" y="4" width="3" height="1" fill="#60427E" />
<rect x="30" y="4" width="2" height="1" fill="#000000" />
<rect x="4" y="5" width="2" height="1" fill="#000000" />
<rect x="6" y="5" width="2" height="1" fill="#60427E" />
<rect x="8" y="5" width="2" height="3" fill="#7E5A9E" />
<rect x="12" y="5" width="1" height="1" fill="#7E5A9E" />
<rect x="13" y="5" width="2" height="2" fill="#A77DCD" />
<rect x="27" y="5" width="2" height="27" fill="#7E5A9E" />
<rect x="29" y="5" width="2" height="1" fill="#60427E" />
<rect x="31" y="5" width="2" height="1" fill="#000000" />
<rect x="3" y="6" width="2" height="1" fill="#000000" />
<rect x="5" y="6" width="2" height="1" fill="#60427E" />
<rect x="7" y="6" width="1" height="4" fill="#7E5A9E" />
<rect x="10" y="6" width="1" height="1" fill="#7E5A9E" />
<rect x="11" y="6" width="2" height="2" fill="#A77DCD" />
<rect x="15" y="6" width="1" height="1" fill="#A77DCD" />
<rect x="16" y="6" width="5" height="29" fill="#7E5A9E" />
<rect x="29" y="6" width="1" height="25" fill="#7E5A9E" />
<rect x="30" y="6" width="2" height="1" fill="#60427E" />
<rect x="32" y="6" width="2" height="1" fill="#000000" />
<rect x="3" y="7" width="1" height="2" fill="#000000" />
<rect x="4" y="7" width="2" height="1" fill="#60427E" />
<rect x="6" y="7" width="1" height="4" fill="#7E5A9E" />
<rect x="10" y="7" width="1" height="3" fill="#A77DCD" />
<rect x="13" y="7" width="1" height="1" fill="#A77DCD" />
<rect x="14" y="7" width="2" height="27" fill="#7E5A9E" />
<rect x="30" y="7" width="1" height="23" fill="#7E5A9E" />
<rect x="31" y="7" width="2" height="1" fill="#60427E" />
<rect x="33" y="7" width="1" height="2" fill="#000000" />
<rect x="2" y="8" width="1" height="4" fill="#000000" />
<rect x="4" y="8" width="1" height="2" fill="#60427E" />
<rect x="5" y="8" width="1" height="5" fill="#7E5A9E" />
<rect x="8" y="8" width="1" height="1" fill="#7E5A9E" />
<rect x="9" y="8" width="1" height="3" fill="#A77DCD" />
<rect x="11" y="8" width="1" height="1" fill="#A77DCD" />
<rect x="12" y="8" width="2" height="26" fill="#7E5A9E" />
<rect x="31" y="8" width="1" height="21" fill="#7E5A9E" />
<rect x="32" y="8" width="1" height="2" fill="#60427E" />
<rect x="34" y="8" width="1" height="4" fill="#000000" />
<rect x="3" y="9" width="1" height="3" fill="#60427E" />
<rect x="8" y="9" width="1" height="3" fill="#A77DCD" />
<rect x="11" y="9" width="1" height="24" fill="#7E5A9E" />
<rect x="33" y="9" width="1" height="3" fill="#60427E" />
<rect x="4" y="10" width="1" height="5" fill="#7E5A9E" />
<rect x="7" y="10" width="1" height="3" fill="#A77DCD" />
<rect x="10" y="10" width="1" height="23" fill="#7E5A9E" />
<rect x="32" y="10" width="1" height="17" fill="#7E5A9E" />
<rect x="1" y="11" width="1" height="4" fill="#000000" />
<rect x="6" y="11" width="1" height="4" fill="#A77DCD" />
<rect x="9" y="11" width="1" height="21" fill="#7E5A9E" />
<rect x="35" y="11" width="1" height="4" fill="#000000" />
<rect x="2" y="12" width="1" height="3" fill="#60427E" />
<rect x="3" y="12" width="1" height="13" fill="#7E5A9E" />
<rect x="8" y="12" width="1" height="20" fill="#7E5A9E" />
<rect x="33" y="12" width="1" height="13" fill="#7E5A9E" />
<rect x="34" y="12" width="1" height="3" fill="#60427E" />
<rect x="5" y="13" width="1" height="9" fill="#A77DCD" />
<rect x="7" y="13" width="1" height="18" fill="#7E5A9E" />
<rect x="0" y="14" width="1" height="9" fill="#000000" />
<rect x="36" y="14" width="1" height="9" fill="#000000" />
<rect x="1" y="15" width="1" height="7" fill="#60427E" />
<rect x="2" y="15" width="1" height="7" fill="#7E5A9E" />
<rect x="4" y="15" width="1" height="7" fill="#A77DCD" />
<rect x="6" y="15" width="1" height="15" fill="#7E5A9E" />
<rect x="34" y="15" width="1" height="7" fill="#7E5A9E" />
<rect x="35" y="15" width="1" height="7" fill="#60427E" />
<rect x="1" y="22" width="1" height="4" fill="#000000" />
<rect x="2" y="22" width="1" height="3" fill="#60427E" />
<rect x="4" y="22" width="2" height="5" fill="#7E5A9E" />
<rect x="34" y="22" width="1" height="3" fill="#60427E" />
<rect x="35" y="22" width="1" height="4" fill="#000000" />
<rect x="2" y="25" width="1" height="4" fill="#000000" />
<rect x="3" y="25" width="1" height="3" fill="#60427E" />
<rect x="33" y="25" width="1" height="3" fill="#60427E" />
<rect x="34" y="25" width="1" height="4" fill="#000000" />
<rect x="4" y="27" width="1" height="3" fill="#60427E" />
<rect x="5" y="27" width="1" height="2" fill="#7E5A9E" />
<rect x="32" y="27" width="1" height="3" fill="#60427E" />
<rect x="3" y="28" width="1" height="3" fill="#000000" />
<rect x="33" y="28" width="1" height="3" fill="#000000" />
<rect x="5" y="29" width="1" height="2" fill="#60427E" />
<rect x="31" y="29" width="1" height="2" fill="#60427E" />
<rect x="4" y="30" width="1" height="2" fill="#000000" />
<rect x="6" y="30" width="1" height="2" fill="#60427E" />
<rect x="30" y="30" width="1" height="7" fill="#60427E" />
<rect x="32" y="30" width="1" height="2" fill="#000000" />
<rect x="5" y="31" width="1" height="2" fill="#000000" />
<rect x="7" y="31" width="1" height="2" fill="#60427E" />
<rect x="29" y="31" width="1" height="5" fill="#60427E" />
<rect x="31" y="31" width="1" height="1" fill="#000000" />
<rect x="6" y="32" width="1" height="2" fill="#000000" />
<rect x="8" y="32" width="2" height="1" fill="#60427E" />
<rect x="27" y="32" width="2" height="2" fill="#60427E" />
<rect x="31" y="32" width="1" height="7" fill="#60427E" />
<rect x="32" y="32" width="1" height="1" fill="#30213F" />
<rect x="33" y="32" width="1" height="2" fill="#000000" />
<rect x="7" y="33" width="2" height="1" fill="#000000" />
<rect x="9" y="33" width="3" height="1" fill="#60427E" />
<rect x="25" y="33" width="2" height="1" fill="#60427E" />
<rect x="32" y="33" width="1" height="7" fill="#60427E" />
<rect x="34" y="33" width="1" height="2" fill="#000000" />
<rect x="8" y="34" width="4" height="1" fill="#000000" />
<rect x="12" y="34" width="3" height="1" fill="#60427E" />
<rect x="15" y="34" width="1" height="1" fill="#7E5A9E" />
<rect x="22" y="34" width="3" height="1" fill="#60427E" />
<rect x="25" y="34" width="3" height="1" fill="#000000" />
<rect x="28" y="34" width="1" height="1" fill="#30213F" />
<rect x="33" y="34" width="1" height="7" fill="#60427E" />
<rect x="35" y="34" width="1" height="2" fill="#000000" />
<rect x="11" y="35" width="4" height="1" fill="#000000" />
<rect x="15" y="35" width="7" height="1" fill="#60427E" />
<rect x="22" y="35" width="3" height="1" fill="#000000" />
<rect x="28" y="35" width="1" height="2" fill="#000000" />
<rect x="34" y="35" width="1" height="7" fill="#60427E" />
<rect x="36" y="35" width="1" height="2" fill="#000000" />
<rect x="14" y="36" width="9" height="1" fill="#000000" />
<rect x="29" y="36" width="1" height="1" fill="#000000" />
<rect x="35" y="36" width="1" height="8" fill="#60427E" />
<rect x="37" y="36" width="1" height="2" fill="#000000" />
<rect x="30" y="37" width="1" height="2" fill="#000000" />
<rect x="36" y="37" width="1" height="8" fill="#60427E" />
<rect x="38" y="37" width="1" height="2" fill="#000000" />
<rect x="37" y="38" width="1" height="8" fill="#60427E" />
<rect x="39" y="38" width="1" height="2" fill="#000000" />
<rect x="31" y="39" width="1" height="2" fill="#000000" />
<rect x="38" y="39" width="1" height="8" fill="#60427E" />
<rect x="40" y="39" width="1" height="3" fill="#000000" />
<rect x="32" y="40" width="1" height="2" fill="#000000" />
<rect x="39" y="40" width="1" height="8" fill="#60427E" />
<rect x="33" y="41" width="1" height="2" fill="#000000" />
<rect x="41" y="41" width="1" height="2" fill="#000000" />
<rect x="34" y="42" width="1" height="3" fill="#000000" />
<rect x="40" y="42" width="1" height="8" fill="#60427E" />
<rect x="42" y="42" width="1" height="2" fill="#000000" />
<rect x="41" y="43" width="1" height="8" fill="#60427E" />
<rect x="43" y="43" width="1" height="2" fill="#000000" />
<rect x="35" y="44" width="1" height="2" fill="#000000" />
<rect x="42" y="44" width="1" height="8" fill="#60427E" />
<rect x="44" y="44" width="1" height="3" fill="#000000" />
<rect x="36" y="45" width="1" height="2" fill="#000000" />
<rect x="43" y="45" width="1" height="8" fill="#60427E" />
<rect x="37" y="46" width="1" height="2" fill="#000000" />
<rect x="45" y="46" width="1" height="2" fill="#000000" />
<rect x="38" y="47" width="1" height="2" fill="#000000" />
<rect x="44" y="47" width="1" height="7" fill="#60427E" />
<rect x="46" y="47" width="1" height="2" fill="#000000" />
<rect x="39" y="48" width="1" height="3" fill="#000000" />
<rect x="45" y="48" width="1" height="8" fill="#60427E" />
<rect x="47" y="48" width="1" height="2" fill="#000000" />
<rect x="46" y="49" width="1" height="8" fill="#60427E" />
<rect x="48" y="49" width="1" height="2" fill="#000000" />
<rect x="40" y="50" width="1" height="2" fill="#000000" />
<rect x="47" y="50" width="1" height="8" fill="#60427E" />
<rect x="49" y="50" width="1" height="3" fill="#000000" />
<rect x="41" y="51" width="1" height="2" fill="#000000" />
<rect x="48" y="51" width="1" height="8" fill="#60427E" />
<rect x="42" y="52" width="1" height="2" fill="#000000" />
<rect x="50" y="52" width="1" height="2" fill="#000000" />
<rect x="43" y="53" width="1" height="2" fill="#000000" />
<rect x="49" y="53" width="1" height="6" fill="#60427E" />
<rect x="51" y="53" width="1" height="2" fill="#000000" />
<rect x="44" y="54" width="1" height="3" fill="#000000" />
<rect x="50" y="54" width="1" height="4" fill="#60427E" />
<rect x="52" y="54" width="1" height="2" fill="#000000" />
<rect x="51" y="55" width="1" height="2" fill="#60427E" />
<rect x="53" y="55" width="1" height="3" fill="#000000" />
<rect x="45" y="56" width="1" height="2" fill="#000000" />
<rect x="52" y="56" width="1" height="4" fill="#30213F" />
<rect x="46" y="57" width="1" height="2" fill="#000000" />
<rect x="51" y="57" width="1" height="4" fill="#30213F" />
<rect x="54" y="57" width="1" height="3" fill="#000000" />
<rect x="47" y="58" width="1" height="2" fill="#000000" />
<rect x="50" y="58" width="1" height="3" fill="#30213F" />
<rect x="53" y="58" width="1" height="1" fill="#30213F" />
<rect x="48" y="59" width="1" height="2" fill="#000000" />
<rect x="49" y="59" width="1" height="1" fill="#30213F" />
<rect x="53" y="59" width="1" height="2" fill="#000000" />
<rect x="49" y="60" width="1" height="2" fill="#000000" />
<rect x="52" y="60" width="1" height="2" fill="#000000" />
<rect x="50" y="61" width="2" height="1" fill="#000000" />
</svg>