<?xml version="1.0" encoding="UTF-8" ?>
<svg version="1.1" width="64" height="64" xmlns="http://www.w3.org/2000/svg" shape-rendering="crispEdges">
<rect x="24" y="0" width="16" height="1" fill="#000000" />
<rect x="22" y="1" width="3" height="1" fill="#000000" />
<rect x="25" y="1" width="14" height="6" fill="#60427E" />
<rect x="39" y="1" width="3" height="1" fill="#000000" />
<rect x="21" y="2" width="3" height="1" fill="#000000" />
<rect x="24" y="2" width="1" height="5" fill="#60427E" />
<rect x="39" y="2" width="1" height="23" fill="#60427E" />
<rect x="40" y="2" width="3" height="1" fill="#000000" />
<rect x="20" y="3" width="3" height="1" fill="#000000" />
<rect x="23" y="3" width="1" height="60" fill="#60427E" />
<rect x="40" y="3" width="1" height="22" fill="#60427E" />
<rect x="41" y="3" width="3" height="1" fill="#000000" />
<rect x="19" y="4" width="3" height="1" fill="#000000" />
<rect x="22" y="4" width="1" height="59" fill="#60427E" />
<rect x="41" y="4" width="1" height="21" fill="#60427E" />
<rect x="42" y="4" width="3" height="1" fill="#000000" />
<rect x="18" y="5" width="3" height="1" fill="#000000" />
<rect x="21" y="5" width="1" height="20" fill="#60427E" />
<rect x="42" y="5" width="1" height="19" fill="#60427E" />
<rect x="43" y="5" width="3" height="1" fill="#000000" />
<rect x="17" y="6" width="3" height="1" fill="#000000" />
<rect x="20" y="6" width="1" height="5" fill="#60427E" />
<rect x="43" y="6" width="1" height="5" fill="#60427E" />
<rect x="44" y="6" width="3" height="1" fill="#000000" />
<rect x="17" y="7" width="2" height="2" fill="#000000" />
<rect x="19" y="7" width="1" height="2" fill="#60427E" />
<rect x="24" y="7" width="3" height="3" fill="#000000" />
<rect x="27" y="7" width="7" height="7" fill="#60427E" />
<rect x="34" y="7" width="3" height="3" fill="#000000" />
<rect x="37" y="7" width="2" height="7" fill="#60427E" />
<rect x="44" y="7" width="1" height="2" fill="#60427E" />
<rect x="45" y="7" width="2" height="2" fill="#000000" />
<rect x="16" y="8" width="1" height="1" fill="#000000" />
<rect x="47" y="8" width="1" height="1" fill="#000000" />
<rect x="15" y="9" width="1" height="3" fill="#000000" />
<rect x="16" y="9" width="3" height="10" fill="#30213F" />
<rect x="19" y="9" width="1" height="3" fill="#000000" />
<rect x="44" y="9" width="1" height="3" fill="#000000" />
<rect x="45" y="9" width="3" height="10" fill="#30213F" />
<rect x="48" y="9" width="1" height="3" fill="#000000" />
<rect x="24" y="10" width="3" height="4" fill="#60427E" />
<rect x="34" y="10" width="3" height="4" fill="#60427E" />
<rect x="14" y="11" width="1" height="7" fill="#000000" />
<rect x="20" y="11" width="1" height="7" fill="#000000" />
<rect x="43" y="11" width="1" height="7" fill="#000000" />
<rect x="49" y="11" width="1" height="7" fill="#000000" />
<rect x="15" y="12" width="1" height="5" fill="#30213F" />
<rect x="19" y="12" width="1" height="6" fill="#30213F" />
<rect x="44" y="12" width="1" height="5" fill="#30213F" />
<rect x="48" y="12" width="1" height="6" fill="#30213F" />
<rect x="24" y="14" width="1" height="40" fill="#60427E" />
<rect x="25" y="14" width="14" height="1" fill="#000000" />
<rect x="25" y="15" width="2" height="5" fill="#000000" />
<rect x="27" y="15" width="10" height="1" fill="#60427E" />
<rect x="37" y="15" width="2" height="5" fill="#000000" />
<rect x="27" y="16" width="10" height="4" fill="#30213F" />
<rect x="15" y="17" width="1" height="3" fill="#000000" />
<rect x="44" y="17" width="1" height="3" fill="#000000" />
<rect x="19" y="18" width="1" height="2" fill="#000000" />
<rect x="20" y="18" width="1" height="6" fill="#60427E" />
<rect x="43" y="18" width="1" height="5" fill="#60427E" />
<rect x="48" y="18" width="1" height="2" fill="#000000" />
<rect x="16" y="19" width="1" height="2" fill="#000000" />
<rect x="17" y="19" width="1" height="1" fill="#30213F" />
<rect x="18" y="19" width="1" height="2" fill="#000000" />
<rect x="45" y="19" width="1" height="3" fill="#000000" />
<rect x="46" y="19" width="1" height="1" fill="#30213F" />
<rect x="47" y="19" width="1" height="2" fill="#000000" />
<rect x="17" y="20" width="1" height="2" fill="#000000" />
<rect x="19" y="20" width="1" height="3" fill="#60427E" />
<rect x="25" y="20" width="2" height="32" fill="#60427E" />
<rect x="27" y="20" width="10" height="2" fill="#000000" />
<rect x="37" y="20" width="1" height="1" fill="#30213F" />
<rect x="38" y="20" width="1" height="22" fill="#60427E" />
<rect x="44" y="20" width="1" height="2" fill="#60427E" />
<rect x="46" y="20" width="1" height="1" fill="#000000" />
<rect x="18" y="21" width="1" height="1" fill="#60427E" />
<rect x="37" y="21" width="1" height="20" fill="#60427E" />
<rect x="18" y="22" width="1" height="2" fill="#000000" />
<rect x="27" y="22" width="10" height="13" fill="#60427E" />
<rect x="44" y="22" width="1" height="2" fill="#000000" />
<rect x="19" y="23" width="1" height="1" fill="#000000" />
<rect x="43" y="23" width="1" height="1" fill="#000000" />
<rect x="20" y="24" width="1" height="1" fill="#000000" />
<rect x="42" y="24" width="1" height="1" fill="#000000" />
<rect x="21" y="25" width="1" height="4" fill="#000000" />
<rect x="39" y="25" width="2" height="4" fill="#30213F" />
<rect x="41" y="25" width="1" height="4" fill="#000000" />
<rect x="19" y="28" width="2" height="1" fill="#000000" />
<rect x="42" y="28" width="2" height="1" fill="#000000" />
<rect x="17" y="29" width="3" height="1" fill="#000000" />
<rect x="20" y="29" width="2" height="34" fill="#60427E" />
<rect x="39" y="29" width="1" height="14" fill="#60427E" />
<rect x="40" y="29" width="3" height="1" fill="#30213F" />
<rect x="43" y="29" width="3" height="1" fill="#000000" />
<rect x="16" y="30" width="2" height="2" fill="#000000" />
<rect x="18" y="30" width="2" height="33" fill="#60427E" />
<rect x="40" y="30" width="5" height="32" fill="#60427E" />
<rect x="45" y="30" width="1" height="2" fill="#000000" />
<rect x="14" y="31" width="2" height="2" fill="#000000" />
<rect x="46" y="31" width="3" height="1" fill="#000000" />
<rect x="13" y="32" width="1" height="2" fill="#000000" />
<rect x="16" y="32" width="2" height="30" fill="#60427E" />
<rect x="45" y="32" width="3" height="30" fill="#60427E" />
<rect x="48" y="32" width="3" height="1" fill="#000000" />
<rect x="12" y="33" width="1" height="2" fill="#000000" />
<rect x="14" y="33" width="2" height="29" fill="#60427E" />
<rect x="48" y="33" width="2" height="28" fill="#60427E" />
<rect x="50" y="33" width="2" height="1" fill="#000000" />
<rect x="10" y="34" width="2" height="1" fill="#000000" />
<rect x="13" y="34" width="1" height="28" fill="#60427E" />
<rect x="50" y="34" width="1" height="27" fill="#60427E" />
<rect x="51" y="34" width="3" height="1" fill="#000000" />
<rect x="9" y="35" width="2" height="1" fill="#000000" />
<rect x="11" y="35" width="2" height="26" fill="#60427E" />
<rect x="27" y="35" width="4" height="17" fill="#60427E" />
<rect x="31" y="35" width="2" height="21" fill="#7E5A9E" />
<rect x="33" y="35" width="4" height="1" fill="#60427E" />
<rect x="51" y="35" width="2" height="26" fill="#60427E" />
<rect x="53" y="35" width="2" height="1" fill="#000000" />
<rect x="7" y="36" width="2" height="1" fill="#000000" />
<rect x="9" y="36" width="2" height="25" fill="#60427E" />
<rect x="33" y="36" width="1" height="4" fill="#7E5A9E" />
<rect x="34" y="36" width="3" height="1" fill="#60427E" />
<rect x="53" y="36" width="1" height="24" fill="#60427E" />
<rect x="54" y="36" width="2" height="1" fill="#000000" />
<rect x="6" y="37" width="2" height="1" fill="#000000" />
<rect x="8" y="37" width="1" height="23" fill="#60427E" />
<rect x="34" y="37" width="1" height="4" fill="#7E5A9E" />
<rect x="35" y="37" width="2" height="2" fill="#60427E" />
<rect x="54" y="37" width="1" height="23" fill="#60427E" />
<rect x="55" y="37" width="2" height="1" fill="#000000" />
<rect x="5" y="38" width="2" height="1" fill="#000000" />
<rect x="7" y="38" width="1" height="22" fill="#60427E" />
<rect x="55" y="38" width="1" height="22" fill="#60427E" />
<rect x="56" y="38" width="2" height="1" fill="#000000" />
<rect x="4" y="39" width="2" height="2" fill="#000000" />
<rect x="6" y="39" width="1" height="19" fill="#60427E" />
<rect x="35" y="39" width="1" height="2" fill="#7E5A9E" />
<rect x="36" y="39" width="1" height="1" fill="#60427E" />
<rect x="56" y="39" width="1" height="19" fill="#60427E" />
<rect x="57" y="39" width="1" height="2" fill="#000000" />
<rect x="33" y="40" width="1" height="23" fill="#60427E" />
<rect x="36" y="40" width="1" height="2" fill="#7E5A9E" />
<rect x="58" y="40" width="1" height="2" fill="#000000" />
<rect x="3" y="41" width="2" height="1" fill="#000000" />
<rect x="5" y="41" width="1" height="17" fill="#60427E" />
<rect x="34" y="41" width="2" height="22" fill="#60427E" />
<rect x="37" y="41" width="1" height="2" fill="#7E5A9E" />
<rect x="57" y="41" width="1" height="17" fill="#60427E" />
<rect x="59" y="41" width="1" height="2" fill="#000000" />
<rect x="3" y="42" width="1" height="2" fill="#000000" />
<rect x="4" y="42" width="1" height="15" fill="#60427E" />
<rect x="36" y="42" width="1" height="21" fill="#60427E" />
<rect x="38" y="42" width="1" height="2" fill="#7E5A9E" />
<rect x="58" y="42" width="1" height="15" fill="#60427E" />
<rect x="2" y="43" width="1" height="3" fill="#000000" />
<rect x="37" y="43" width="1" height="20" fill="#60427E" />
<rect x="39" y="43" width="1" height="4" fill="#7E5A9E" />
<rect x="59" y="43" width="1" height="13" fill="#60427E" />
<rect x="60" y="43" width="1" height="2" fill="#000000" />
<rect x="3" y="44" width="1" height="13" fill="#60427E" />
<rect x="38" y="44" width="1" height="19" fill="#60427E" />
<rect x="61" y="44" width="1" height="3" fill="#000000" />
<rect x="1" y="45" width="1" height="6" fill="#000000" />
<rect x="60" y="45" width="1" height="11" fill="#60427E" />
<rect x="62" y="45" width="1" height="4" fill="#000000" />
<rect x="2" y="46" width="1" height="10" fill="#60427E" />
<rect x="39" y="47" width="1" height="16" fill="#60427E" />
<rect x="61" y="47" width="1" height="7" fill="#60427E" />
<rect x="63" y="47" width="1" height="7" fill="#000000" />
<rect x="0" y="49" width="1" height="7" fill="#000000" />
<rect x="62" y="49" width="1" height="4" fill="#60427E" />
<rect x="1" y="51" width="1" height="4" fill="#60427E" />
<rect x="25" y="52" width="1" height="1" fill="#60427E" />
<rect x="26" y="52" width="5" height="5" fill="#7E5A9E" />
<rect x="25" y="53" width="1" height="5" fill="#7E5A9E" />
<rect x="62" y="53" width="1" height="2" fill="#000000" />
<rect x="24" y="54" width="1" height="4" fill="#7E5A9E" />
<rect x="61" y="54" width="1" height="3" fill="#000000" />
<rect x="1" y="55" width="1" height="2" fill="#000000" />
<rect x="2" y="56" width="1" height="2" fill="#000000" />
<rect x="31" y="56" width="1" height="1" fill="#7E5A9E" />
<rect x="32" y="56" width="1" height="7" fill="#60427E" />
<rect x="59" y="56" width="2" height="1" fill="#000000" />
<rect x="3" y="57" width="2" height="1" fill="#000000" />
<rect x="26" y="57" width="4" height="1" fill="#7E5A9E" />
<rect x="30" y="57" width="2" height="6" fill="#60427E" />
<rect x="58" y="57" width="2" height="1" fill="#000000" />
<rect x="4" y="58" width="3" height="1" fill="#000000" />
<rect x="24" y="58" width="6" height="5" fill="#60427E" />
<rect x="56" y="58" width="3" height="1" fill="#000000" />
<rect x="6" y="59" width="1" height="2" fill="#000000" />
<rect x="56" y="59" width="2" height="1" fill="#000000" />
<rect x="7" y="60" width="2" height="1" fill="#000000" />
<rect x="53" y="60" width="4" height="1" fill="#000000" />
<rect x="8" y="61" width="4" height="1" fill="#000000" />
<rect x="12" y="61" width="1" height="1" fill="#60427E" />
<rect x="48" y="61" width="1" height="1" fill="#60427E" />
<rect x="49" y="61" width="5" height="1" fill="#000000" />
<rect x="11" y="62" width="7" height="1" fill="#000000" />
<rect x="40" y="62" width="4" height="1" fill="#60427E" />
<rect x="44" y="62" width="7" height="1" fill="#000000" />
<rect x="16" y="63" width="28" height="1" fill="#000000" />
</svg>