<?xml version="1.0" encoding="UTF-8" ?>
<svg version="1.1" width="680" height="680" xmlns="http://www.w3.org/2000/svg" shape-rendering="crispEdges">
<rect x="20" y="0" width="640" height="20" fill="#101010" />
<rect x="10" y="10" width="10" height="660" fill="#101010" />
<rect x="660" y="10" width="10" height="660" fill="#101010" />
<rect x="0" y="20" width="10" height="640" fill="#101010" />
<rect x="20" y="20" width="640" height="10" fill="#984D19" />
<rect x="670" y="20" width="10" height="640" fill="#101010" />
<rect x="20" y="30" width="270" height="10" fill="#984D19" />
<rect x="290" y="30" width="100" height="10" fill="#131313" />
<rect x="390" y="30" width="270" height="10" fill="#984D19" />
<rect x="20" y="40" width="230" height="10" fill="#984D19" />
<rect x="250" y="40" width="40" height="10" fill="#131313" />
<rect x="290" y="40" width="100" height="10" fill="#FFFFFF" />
<rect x="390" y="40" width="40" height="10" fill="#131313" />
<rect x="430" y="40" width="230" height="10" fill="#984D19" />
<rect x="20" y="50" width="200" height="10" fill="#984D19" />
<rect x="220" y="50" width="30" height="10" fill="#131313" />
<rect x="250" y="50" width="40" height="10" fill="#FFFFFF" />
<rect x="290" y="50" width="100" height="20" fill="#131313" />
<rect x="390" y="50" width="40" height="10" fill="#FFFFFF" />
<rect x="430" y="50" width="30" height="10" fill="#131313" />
<rect x="460" y="50" width="200" height="10" fill="#984D19" />
<rect x="20" y="60" width="180" height="10" fill="#984D19" />
<rect x="200" y="60" width="30" height="10" fill="#131313" />
<rect x="230" y="60" width="20" height="10" fill="#FFFFFF" />
<rect x="250" y="60" width="40" height="20" fill="#131313" />
<rect x="390" y="60" width="40" height="20" fill="#131313" />
<rect x="430" y="60" width="20" height="10" fill="#FFFFFF" />
<rect x="450" y="60" width="30" height="10" fill="#131313" />
<rect x="480" y="60" width="180" height="10" fill="#984D19" />
<rect x="20" y="70" width="160" height="10" fill="#984D19" />
<rect x="180" y="70" width="20" height="10" fill="#131313" />
<rect x="200" y="70" width="30" height="10" fill="#FFFFFF" />
<rect x="230" y="70" width="20" height="20" fill="#131313" />
<rect x="290" y="70" width="100" height="10" fill="#575757" />
<rect x="430" y="70" width="20" height="20" fill="#131313" />
<rect x="450" y="70" width="30" height="10" fill="#FFFFFF" />
<rect x="480" y="70" width="20" height="10" fill="#131313" />
<rect x="500" y="70" width="160" height="10" fill="#984D19" />
<rect x="20" y="80" width="150" height="10" fill="#984D19" />
<rect x="170" y="80" width="20" height="10" fill="#131313" />
<rect x="190" y="80" width="10" height="10" fill="#FFFFFF" />
<rect x="200" y="80" width="30" height="20" fill="#131313" />
<rect x="250" y="80" width="10" height="10" fill="#131313" />
<rect x="260" y="80" width="30" height="10" fill="#575757" />
<rect x="290" y="80" width="100" height="200" fill="#131313" />
<rect x="390" y="80" width="30" height="10" fill="#575757" />
<rect x="420" y="80" width="10" height="10" fill="#131313" />
<rect x="450" y="80" width="30" height="20" fill="#131313" />
<rect x="480" y="80" width="10" height="10" fill="#FFFFFF" />
<rect x="490" y="80" width="20" height="10" fill="#131313" />
<rect x="510" y="80" width="150" height="10" fill="#984D19" />
<rect x="20" y="90" width="140" height="10" fill="#984D19" />
<rect x="160" y="90" width="10" height="10" fill="#131313" />
<rect x="170" y="90" width="20" height="10" fill="#FFFFFF" />
<rect x="190" y="90" width="10" height="30" fill="#131313" />
<rect x="230" y="90" width="30" height="10" fill="#575757" />
<rect x="260" y="90" width="30" height="230" fill="#131313" />
<rect x="390" y="90" width="30" height="230" fill="#131313" />
<rect x="420" y="90" width="30" height="10" fill="#575757" />
<rect x="480" y="90" width="10" height="30" fill="#131313" />
<rect x="490" y="90" width="20" height="10" fill="#FFFFFF" />
<rect x="510" y="90" width="10" height="10" fill="#131313" />
<rect x="520" y="90" width="140" height="10" fill="#984D19" />
<rect x="20" y="100" width="120" height="10" fill="#984D19" />
<rect x="140" y="100" width="20" height="10" fill="#131313" />
<rect x="160" y="100" width="10" height="10" fill="#FFFFFF" />
<rect x="170" y="100" width="20" height="20" fill="#131313" />
<rect x="200" y="100" width="10" height="10" fill="#131313" />
<rect x="210" y="100" width="20" height="10" fill="#575757" />
<rect x="230" y="100" width="30" height="480" fill="#131313" />
<rect x="420" y="100" width="30" height="480" fill="#131313" />
<rect x="450" y="100" width="20" height="10" fill="#575757" />
<rect x="470" y="100" width="10" height="10" fill="#131313" />
<rect x="490" y="100" width="20" height="20" fill="#131313" />
<rect x="510" y="100" width="10" height="10" fill="#FFFFFF" />
<rect x="520" y="100" width="20" height="10" fill="#131313" />
<rect x="540" y="100" width="120" height="10" fill="#984D19" />
<rect x="20" y="110" width="110" height="10" fill="#984D19" />
<rect x="130" y="110" width="20" height="10" fill="#131313" />
<rect x="150" y="110" width="10" height="10" fill="#FFFFFF" />
<rect x="160" y="110" width="10" height="30" fill="#131313" />
<rect x="200" y="110" width="10" height="10" fill="#575757" />
<rect x="210" y="110" width="20" height="460" fill="#131313" />
<rect x="450" y="110" width="20" height="460" fill="#131313" />
<rect x="470" y="110" width="10" height="10" fill="#575757" />
<rect x="510" y="110" width="10" height="30" fill="#131313" />
<rect x="520" y="110" width="10" height="10" fill="#FFFFFF" />
<rect x="530" y="110" width="20" height="10" fill="#131313" />
<rect x="550" y="110" width="110" height="10" fill="#984D19" />
<rect x="20" y="120" width="100" height="10" fill="#984D19" />
<rect x="120" y="120" width="20" height="10" fill="#131313" />
<rect x="140" y="120" width="10" height="10" fill="#FFFFFF" />
<rect x="150" y="120" width="10" height="30" fill="#131313" />
<rect x="170" y="120" width="10" height="10" fill="#131313" />
<rect x="180" y="120" width="20" height="10" fill="#575757" />
<rect x="200" y="120" width="10" height="440" fill="#131313" />
<rect x="470" y="120" width="10" height="440" fill="#131313" />
<rect x="480" y="120" width="20" height="10" fill="#575757" />
<rect x="500" y="120" width="10" height="10" fill="#131313" />
<rect x="520" y="120" width="10" height="30" fill="#131313" />
<rect x="530" y="120" width="10" height="10" fill="#FFFFFF" />
<rect x="540" y="120" width="20" height="10" fill="#131313" />
<rect x="560" y="120" width="100" height="10" fill="#984D19" />
<rect x="20" y="130" width="90" height="10" fill="#984D19" />
<rect x="110" y="130" width="20" height="10" fill="#131313" />
<rect x="130" y="130" width="10" height="10" fill="#FFFFFF" />
<rect x="140" y="130" width="10" height="30" fill="#131313" />
<rect x="170" y="130" width="10" height="10" fill="#575757" />
<rect x="180" y="130" width="20" height="420" fill="#131313" />
<rect x="480" y="130" width="20" height="420" fill="#131313" />
<rect x="500" y="130" width="10" height="10" fill="#575757" />
<rect x="530" y="130" width="10" height="30" fill="#131313" />
<rect x="540" y="130" width="10" height="10" fill="#FFFFFF" />
<rect x="550" y="130" width="20" height="10" fill="#131313" />
<rect x="570" y="130" width="90" height="10" fill="#984D19" />
<rect x="20" y="140" width="80" height="20" fill="#984D19" />
<rect x="100" y="140" width="20" height="10" fill="#131313" />
<rect x="120" y="140" width="10" height="10" fill="#FFFFFF" />
<rect x="130" y="140" width="10" height="30" fill="#131313" />
<rect x="160" y="140" width="10" height="10" fill="#575757" />
<rect x="170" y="140" width="10" height="400" fill="#131313" />
<rect x="500" y="140" width="10" height="400" fill="#131313" />
<rect x="510" y="140" width="10" height="10" fill="#575757" />
<rect x="540" y="140" width="10" height="30" fill="#131313" />
<rect x="550" y="140" width="10" height="10" fill="#FFFFFF" />
<rect x="560" y="140" width="20" height="10" fill="#131313" />
<rect x="580" y="140" width="80" height="20" fill="#984D19" />
<rect x="100" y="150" width="10" height="10" fill="#131313" />
<rect x="110" y="150" width="10" height="10" fill="#FFFFFF" />
<rect x="120" y="150" width="10" height="30" fill="#131313" />
<rect x="150" y="150" width="10" height="10" fill="#575757" />
<rect x="160" y="150" width="10" height="380" fill="#131313" />
<rect x="510" y="150" width="10" height="380" fill="#131313" />
<rect x="520" y="150" width="10" height="10" fill="#575757" />
<rect x="550" y="150" width="10" height="30" fill="#131313" />
<rect x="560" y="150" width="10" height="10" fill="#FFFFFF" />
<rect x="570" y="150" width="10" height="10" fill="#131313" />
<rect x="20" y="160" width="70" height="10" fill="#984D19" />
<rect x="90" y="160" width="10" height="10" fill="#131313" />
<rect x="100" y="160" width="10" height="10" fill="#FFFFFF" />
<rect x="110" y="160" width="10" height="40" fill="#131313" />
<rect x="140" y="160" width="10" height="10" fill="#575757" />
<rect x="150" y="160" width="10" height="360" fill="#131313" />
<rect x="520" y="160" width="10" height="360" fill="#131313" />
<rect x="530" y="160" width="10" height="10" fill="#575757" />
<rect x="560" y="160" width="10" height="40" fill="#131313" />
<rect x="570" y="160" width="10" height="10" fill="#FFFFFF" />
<rect x="580" y="160" width="10" height="10" fill="#131313" />
<rect x="590" y="160" width="70" height="10" fill="#984D19" />
<rect x="20" y="170" width="60" height="10" fill="#984D19" />
<rect x="80" y="170" width="10" height="20" fill="#131313" />
<rect x="90" y="170" width="10" height="20" fill="#FFFFFF" />
<rect x="100" y="170" width="10" height="40" fill="#131313" />
<rect x="130" y="170" width="10" height="10" fill="#575757" />
<rect x="140" y="170" width="10" height="340" fill="#131313" />
<rect x="530" y="170" width="10" height="340" fill="#131313" />
<rect x="540" y="170" width="10" height="10" fill="#575757" />
<rect x="570" y="170" width="10" height="40" fill="#131313" />
<rect x="580" y="170" width="10" height="20" fill="#FFFFFF" />
<rect x="590" y="170" width="10" height="20" fill="#131313" />
<rect x="600" y="170" width="60" height="10" fill="#984D19" />
<rect x="20" y="180" width="50" height="20" fill="#984D19" />
<rect x="70" y="180" width="10" height="20" fill="#131313" />
<rect x="120" y="180" width="10" height="20" fill="#575757" />
<rect x="130" y="180" width="10" height="320" fill="#131313" />
<rect x="540" y="180" width="10" height="320" fill="#131313" />
<rect x="550" y="180" width="10" height="20" fill="#575757" />
<rect x="600" y="180" width="10" height="20" fill="#131313" />
<rect x="610" y="180" width="50" height="20" fill="#984D19" />
<rect x="80" y="190" width="10" height="10" fill="#FFFFFF" />
<rect x="90" y="190" width="10" height="40" fill="#131313" />
<rect x="580" y="190" width="10" height="40" fill="#131313" />
<rect x="590" y="190" width="10" height="10" fill="#FFFFFF" />
<rect x="20" y="200" width="40" height="20" fill="#984D19" />
<rect x="60" y="200" width="10" height="30" fill="#131313" />
<rect x="70" y="200" width="10" height="30" fill="#FFFFFF" />
<rect x="80" y="200" width="10" height="60" fill="#131313" />
<rect x="110" y="200" width="10" height="10" fill="#575757" />
<rect x="120" y="200" width="10" height="280" fill="#131313" />
<rect x="550" y="200" width="10" height="280" fill="#131313" />
<rect x="560" y="200" width="10" height="10" fill="#575757" />
<rect x="590" y="200" width="10" height="60" fill="#131313" />
<rect x="600" y="200" width="10" height="30" fill="#FFFFFF" />
<rect x="610" y="200" width="10" height="30" fill="#131313" />
<rect x="620" y="200" width="40" height="20" fill="#984D19" />
<rect x="100" y="210" width="10" height="20" fill="#575757" />
<rect x="110" y="210" width="10" height="260" fill="#131313" />
<rect x="560" y="210" width="10" height="260" fill="#131313" />
<rect x="570" y="210" width="10" height="20" fill="#575757" />
<rect x="20" y="220" width="30" height="30" fill="#984D19" />
<rect x="50" y="220" width="10" height="30" fill="#131313" />
<rect x="620" y="220" width="10" height="30" fill="#131313" />
<rect x="630" y="220" width="30" height="30" fill="#984D19" />
<rect x="60" y="230" width="10" height="20" fill="#FFFFFF" />
<rect x="70" y="230" width="10" height="60" fill="#131313" />
<rect x="90" y="230" width="10" height="30" fill="#575757" />
<rect x="100" y="230" width="10" height="220" fill="#131313" />
<rect x="570" y="230" width="10" height="220" fill="#131313" />
<rect x="580" y="230" width="10" height="30" fill="#575757" />
<rect x="600" y="230" width="10" height="60" fill="#131313" />
<rect x="610" y="230" width="10" height="20" fill="#FFFFFF" />
<rect x="20" y="250" width="20" height="40" fill="#984D19" />
<rect x="40" y="250" width="10" height="40" fill="#131313" />
<rect x="50" y="250" width="10" height="40" fill="#FFFFFF" />
<rect x="60" y="250" width="10" height="180" fill="#131313" />
<rect x="610" y="250" width="10" height="180" fill="#131313" />
<rect x="620" y="250" width="10" height="40" fill="#FFFFFF" />
<rect x="630" y="250" width="10" height="40" fill="#131313" />
<rect x="640" y="250" width="20" height="40" fill="#984D19" />
<rect x="80" y="260" width="10" height="30" fill="#575757" />
<rect x="90" y="260" width="10" height="160" fill="#131313" />
<rect x="580" y="260" width="10" height="160" fill="#131313" />
<rect x="590" y="260" width="10" height="30" fill="#575757" />
<rect x="290" y="280" width="30" height="10" fill="#131313" />
<rect x="320" y="280" width="40" height="10" fill="#FFFFFF" />
<rect x="360" y="280" width="30" height="10" fill="#131313" />
<rect x="20" y="290" width="10" height="370" fill="#984D19" />
<rect x="30" y="290" width="10" height="100" fill="#131313" />
<rect x="40" y="290" width="10" height="100" fill="#FFFFFF" />
<rect x="50" y="290" width="10" height="100" fill="#131313" />
<rect x="70" y="290" width="10" height="100" fill="#575757" />
<rect x="80" y="290" width="10" height="100" fill="#131313" />
<rect x="290" y="290" width="10" height="10" fill="#131313" />
<rect x="300" y="290" width="20" height="10" fill="#FFFFFF" />
<rect x="320" y="290" width="40" height="10" fill="#131313" />
<rect x="360" y="290" width="20" height="10" fill="#FFFFFF" />
<rect x="380" y="290" width="10" height="10" fill="#131313" />
<rect x="590" y="290" width="10" height="100" fill="#131313" />
<rect x="600" y="290" width="10" height="100" fill="#575757" />
<rect x="620" y="290" width="10" height="100" fill="#131313" />
<rect x="630" y="290" width="10" height="100" fill="#FFFFFF" />
<rect x="640" y="290" width="10" height="100" fill="#131313" />
<rect x="650" y="290" width="10" height="370" fill="#984D19" />
<rect x="290" y="300" width="10" height="20" fill="#FFFFFF" />
<rect x="300" y="300" width="20" height="10" fill="#131313" />
<rect x="320" y="300" width="40" height="80" fill="#984D19" />
<rect x="360" y="300" width="20" height="10" fill="#131313" />
<rect x="380" y="300" width="10" height="20" fill="#FFFFFF" />
<rect x="300" y="310" width="10" height="10" fill="#131313" />
<rect x="310" y="310" width="10" height="60" fill="#984D19" />
<rect x="360" y="310" width="10" height="60" fill="#984D19" />
<rect x="370" y="310" width="10" height="10" fill="#131313" />
<rect x="260" y="320" width="20" height="270" fill="#131313" />
<rect x="280" y="320" width="10" height="40" fill="#FFFFFF" />
<rect x="290" y="320" width="10" height="40" fill="#131313" />
<rect x="300" y="320" width="10" height="40" fill="#984D19" />
<rect x="370" y="320" width="10" height="40" fill="#984D19" />
<rect x="380" y="320" width="10" height="40" fill="#131313" />
<rect x="390" y="320" width="10" height="40" fill="#FFFFFF" />
<rect x="400" y="320" width="20" height="270" fill="#131313" />
<rect x="280" y="360" width="10" height="230" fill="#131313" />
<rect x="290" y="360" width="10" height="20" fill="#FFFFFF" />
<rect x="300" y="360" width="10" height="20" fill="#131313" />
<rect x="370" y="360" width="10" height="20" fill="#131313" />
<rect x="380" y="360" width="10" height="20" fill="#FFFFFF" />
<rect x="390" y="360" width="10" height="230" fill="#131313" />
<rect x="310" y="370" width="10" height="10" fill="#131313" />
<rect x="360" y="370" width="10" height="10" fill="#131313" />
<rect x="290" y="380" width="10" height="220" fill="#131313" />
<rect x="300" y="380" width="20" height="10" fill="#FFFFFF" />
<rect x="320" y="380" width="40" height="10" fill="#131313" />
<rect x="360" y="380" width="20" height="10" fill="#FFFFFF" />
<rect x="380" y="380" width="10" height="220" fill="#131313" />
<rect x="30" y="390" width="10" height="270" fill="#984D19" />
<rect x="40" y="390" width="10" height="40" fill="#131313" />
<rect x="50" y="390" width="10" height="40" fill="#FFFFFF" />
<rect x="70" y="390" width="10" height="60" fill="#131313" />
<rect x="80" y="390" width="10" height="30" fill="#575757" />
<rect x="300" y="390" width="20" height="210" fill="#131313" />
<rect x="320" y="390" width="40" height="10" fill="#FFFFFF" />
<rect x="360" y="390" width="20" height="210" fill="#131313" />
<rect x="590" y="390" width="10" height="30" fill="#575757" />
<rect x="600" y="390" width="10" height="60" fill="#131313" />
<rect x="620" y="390" width="10" height="40" fill="#FFFFFF" />
<rect x="630" y="390" width="10" height="40" fill="#131313" />
<rect x="640" y="390" width="10" height="270" fill="#984D19" />
<rect x="320" y="400" width="40" height="200" fill="#131313" />
<rect x="80" y="420" width="10" height="60" fill="#131313" />
<rect x="90" y="420" width="10" height="30" fill="#575757" />
<rect x="580" y="420" width="10" height="30" fill="#575757" />
<rect x="590" y="420" width="10" height="60" fill="#131313" />
<rect x="40" y="430" width="10" height="230" fill="#984D19" />
<rect x="50" y="430" width="10" height="30" fill="#131313" />
<rect x="60" y="430" width="10" height="20" fill="#FFFFFF" />
<rect x="610" y="430" width="10" height="20" fill="#FFFFFF" />
<rect x="620" y="430" width="10" height="30" fill="#131313" />
<rect x="630" y="430" width="10" height="230" fill="#984D19" />
<rect x="60" y="450" width="10" height="30" fill="#131313" />
<rect x="70" y="450" width="10" height="30" fill="#FFFFFF" />
<rect x="90" y="450" width="10" height="40" fill="#131313" />
<rect x="100" y="450" width="10" height="20" fill="#575757" />
<rect x="570" y="450" width="10" height="20" fill="#575757" />
<rect x="580" y="450" width="10" height="40" fill="#131313" />
<rect x="600" y="450" width="10" height="30" fill="#FFFFFF" />
<rect x="610" y="450" width="10" height="30" fill="#131313" />
<rect x="50" y="460" width="10" height="200" fill="#984D19" />
<rect x="620" y="460" width="10" height="200" fill="#984D19" />
<rect x="100" y="470" width="10" height="40" fill="#131313" />
<rect x="110" y="470" width="10" height="10" fill="#575757" />
<rect x="560" y="470" width="10" height="10" fill="#575757" />
<rect x="570" y="470" width="10" height="40" fill="#131313" />
<rect x="60" y="480" width="10" height="180" fill="#984D19" />
<rect x="70" y="480" width="10" height="20" fill="#131313" />
<rect x="80" y="480" width="10" height="10" fill="#FFFFFF" />
<rect x="110" y="480" width="10" height="40" fill="#131313" />
<rect x="120" y="480" width="10" height="20" fill="#575757" />
<rect x="550" y="480" width="10" height="20" fill="#575757" />
<rect x="560" y="480" width="10" height="40" fill="#131313" />
<rect x="590" y="480" width="10" height="10" fill="#FFFFFF" />
<rect x="600" y="480" width="10" height="20" fill="#131313" />
<rect x="610" y="480" width="10" height="180" fill="#984D19" />
<rect x="80" y="490" width="10" height="20" fill="#131313" />
<rect x="90" y="490" width="10" height="20" fill="#FFFFFF" />
<rect x="580" y="490" width="10" height="20" fill="#FFFFFF" />
<rect x="590" y="490" width="10" height="20" fill="#131313" />
<rect x="70" y="500" width="10" height="160" fill="#984D19" />
<rect x="120" y="500" width="10" height="30" fill="#131313" />
<rect x="130" y="500" width="10" height="10" fill="#575757" />
<rect x="540" y="500" width="10" height="10" fill="#575757" />
<rect x="550" y="500" width="10" height="30" fill="#131313" />
<rect x="600" y="500" width="10" height="160" fill="#984D19" />
<rect x="80" y="510" width="10" height="150" fill="#984D19" />
<rect x="90" y="510" width="10" height="10" fill="#131313" />
<rect x="100" y="510" width="10" height="10" fill="#FFFFFF" />
<rect x="130" y="510" width="10" height="30" fill="#131313" />
<rect x="140" y="510" width="10" height="10" fill="#575757" />
<rect x="530" y="510" width="10" height="10" fill="#575757" />
<rect x="540" y="510" width="10" height="30" fill="#131313" />
<rect x="570" y="510" width="10" height="10" fill="#FFFFFF" />
<rect x="580" y="510" width="10" height="10" fill="#131313" />
<rect x="590" y="510" width="10" height="150" fill="#984D19" />
<rect x="90" y="520" width="10" height="140" fill="#984D19" />
<rect x="100" y="520" width="10" height="20" fill="#131313" />
<rect x="110" y="520" width="10" height="10" fill="#FFFFFF" />
<rect x="140" y="520" width="10" height="30" fill="#131313" />
<rect x="150" y="520" width="10" height="10" fill="#575757" />
<rect x="520" y="520" width="10" height="10" fill="#575757" />
<rect x="530" y="520" width="10" height="30" fill="#131313" />
<rect x="560" y="520" width="10" height="10" fill="#FFFFFF" />
<rect x="570" y="520" width="10" height="20" fill="#131313" />
<rect x="580" y="520" width="10" height="140" fill="#984D19" />
<rect x="110" y="530" width="10" height="20" fill="#131313" />
<rect x="120" y="530" width="10" height="10" fill="#FFFFFF" />
<rect x="150" y="530" width="10" height="30" fill="#131313" />
<rect x="160" y="530" width="10" height="10" fill="#575757" />
<rect x="510" y="530" width="10" height="10" fill="#575757" />
<rect x="520" y="530" width="10" height="30" fill="#131313" />
<rect x="550" y="530" width="10" height="10" fill="#FFFFFF" />
<rect x="560" y="530" width="10" height="20" fill="#131313" />
<rect x="100" y="540" width="10" height="120" fill="#984D19" />
<rect x="120" y="540" width="10" height="20" fill="#131313" />
<rect x="130" y="540" width="10" height="10" fill="#FFFFFF" />
<rect x="160" y="540" width="10" height="30" fill="#131313" />
<rect x="170" y="540" width="10" height="10" fill="#575757" />
<rect x="500" y="540" width="10" height="10" fill="#575757" />
<rect x="510" y="540" width="10" height="30" fill="#131313" />
<rect x="540" y="540" width="10" height="10" fill="#FFFFFF" />
<rect x="550" y="540" width="10" height="20" fill="#131313" />
<rect x="570" y="540" width="10" height="120" fill="#984D19" />
<rect x="110" y="550" width="10" height="110" fill="#984D19" />
<rect x="130" y="550" width="10" height="20" fill="#131313" />
<rect x="140" y="550" width="10" height="10" fill="#FFFFFF" />
<rect x="170" y="550" width="10" height="30" fill="#131313" />
<rect x="180" y="550" width="20" height="10" fill="#575757" />
<rect x="480" y="550" width="20" height="10" fill="#575757" />
<rect x="500" y="550" width="10" height="30" fill="#131313" />
<rect x="530" y="550" width="10" height="10" fill="#FFFFFF" />
<rect x="540" y="550" width="10" height="20" fill="#131313" />
<rect x="560" y="550" width="10" height="110" fill="#984D19" />
<rect x="120" y="560" width="10" height="100" fill="#984D19" />
<rect x="140" y="560" width="10" height="20" fill="#131313" />
<rect x="150" y="560" width="10" height="10" fill="#FFFFFF" />
<rect x="180" y="560" width="20" height="20" fill="#131313" />
<rect x="200" y="560" width="10" height="10" fill="#575757" />
<rect x="470" y="560" width="10" height="10" fill="#575757" />
<rect x="480" y="560" width="20" height="20" fill="#131313" />
<rect x="520" y="560" width="10" height="10" fill="#FFFFFF" />
<rect x="530" y="560" width="10" height="20" fill="#131313" />
<rect x="550" y="560" width="10" height="100" fill="#984D19" />
<rect x="130" y="570" width="10" height="90" fill="#984D19" />
<rect x="150" y="570" width="10" height="10" fill="#131313" />
<rect x="160" y="570" width="10" height="10" fill="#FFFFFF" />
<rect x="200" y="570" width="10" height="30" fill="#131313" />
<rect x="210" y="570" width="20" height="10" fill="#575757" />
<rect x="450" y="570" width="20" height="10" fill="#575757" />
<rect x="470" y="570" width="10" height="30" fill="#131313" />
<rect x="510" y="570" width="10" height="10" fill="#FFFFFF" />
<rect x="520" y="570" width="10" height="10" fill="#131313" />
<rect x="540" y="570" width="10" height="90" fill="#984D19" />
<rect x="140" y="580" width="20" height="80" fill="#984D19" />
<rect x="160" y="580" width="10" height="10" fill="#131313" />
<rect x="170" y="580" width="20" height="10" fill="#FFFFFF" />
<rect x="190" y="580" width="10" height="10" fill="#131313" />
<rect x="210" y="580" width="20" height="20" fill="#131313" />
<rect x="230" y="580" width="30" height="10" fill="#575757" />
<rect x="420" y="580" width="30" height="10" fill="#575757" />
<rect x="450" y="580" width="20" height="20" fill="#131313" />
<rect x="480" y="580" width="10" height="10" fill="#131313" />
<rect x="490" y="580" width="20" height="10" fill="#FFFFFF" />
<rect x="510" y="580" width="10" height="10" fill="#131313" />
<rect x="520" y="580" width="20" height="80" fill="#984D19" />
<rect x="160" y="590" width="10" height="70" fill="#984D19" />
<rect x="170" y="590" width="20" height="10" fill="#131313" />
<rect x="190" y="590" width="10" height="10" fill="#FFFFFF" />
<rect x="230" y="590" width="30" height="20" fill="#131313" />
<rect x="260" y="590" width="30" height="10" fill="#575757" />
<rect x="390" y="590" width="30" height="10" fill="#575757" />
<rect x="420" y="590" width="30" height="20" fill="#131313" />
<rect x="480" y="590" width="10" height="10" fill="#FFFFFF" />
<rect x="490" y="590" width="20" height="10" fill="#131313" />
<rect x="510" y="590" width="10" height="70" fill="#984D19" />
<rect x="170" y="600" width="10" height="60" fill="#984D19" />
<rect x="180" y="600" width="20" height="10" fill="#131313" />
<rect x="200" y="600" width="30" height="10" fill="#FFFFFF" />
<rect x="260" y="600" width="30" height="20" fill="#131313" />
<rect x="290" y="600" width="100" height="10" fill="#575757" />
<rect x="390" y="600" width="30" height="20" fill="#131313" />
<rect x="450" y="600" width="30" height="10" fill="#FFFFFF" />
<rect x="480" y="600" width="20" height="10" fill="#131313" />
<rect x="500" y="600" width="10" height="60" fill="#984D19" />
<rect x="180" y="610" width="20" height="50" fill="#984D19" />
<rect x="200" y="610" width="30" height="10" fill="#131313" />
<rect x="230" y="610" width="20" height="10" fill="#FFFFFF" />
<rect x="250" y="610" width="10" height="10" fill="#131313" />
<rect x="290" y="610" width="100" height="20" fill="#131313" />
<rect x="420" y="610" width="10" height="10" fill="#131313" />
<rect x="430" y="610" width="20" height="10" fill="#FFFFFF" />
<rect x="450" y="610" width="30" height="10" fill="#131313" />
<rect x="480" y="610" width="20" height="50" fill="#984D19" />
<rect x="200" y="620" width="20" height="40" fill="#984D19" />
<rect x="220" y="620" width="30" height="10" fill="#131313" />
<rect x="250" y="620" width="40" height="10" fill="#FFFFFF" />
<rect x="390" y="620" width="40" height="10" fill="#FFFFFF" />
<rect x="430" y="620" width="30" height="10" fill="#131313" />
<rect x="460" y="620" width="20" height="40" fill="#984D19" />
<rect x="220" y="630" width="30" height="30" fill="#984D19" />
<rect x="250" y="630" width="40" height="10" fill="#131313" />
<rect x="290" y="630" width="100" height="10" fill="#FFFFFF" />
<rect x="390" y="630" width="40" height="10" fill="#131313" />
<rect x="430" y="630" width="30" height="30" fill="#984D19" />
<rect x="250" y="640" width="40" height="20" fill="#984D19" />
<rect x="290" y="640" width="100" height="10" fill="#131313" />
<rect x="390" y="640" width="40" height="20" fill="#984D19" />
<rect x="290" y="650" width="100" height="10" fill="#984D19" />
<rect x="20" y="660" width="640" height="10" fill="#101010" />
<rect x="20" y="670" width="640" height="10" fill="#242221" />
</svg>