<?xml version="1.0" encoding="UTF-8" ?>
<svg version="1.1" width="600" height="600" xmlns="http://www.w3.org/2000/svg" shape-rendering="crispEdges">
<rect x="250" y="0" width="100" height="10" fill="#8454AF" />
<rect x="210" y="10" width="40" height="10" fill="#8454AF" />
<rect x="250" y="10" width="100" height="20" fill="#131313" />
<rect x="350" y="10" width="40" height="10" fill="#8454AF" />
<rect x="190" y="20" width="20" height="10" fill="#8454AF" />
<rect x="210" y="20" width="40" height="20" fill="#131313" />
<rect x="350" y="20" width="40" height="20" fill="#131313" />
<rect x="390" y="20" width="20" height="10" fill="#8454AF" />
<rect x="160" y="30" width="30" height="10" fill="#8454AF" />
<rect x="190" y="30" width="20" height="20" fill="#131313" />
<rect x="250" y="30" width="100" height="10" fill="#FFFFFF" />
<rect x="390" y="30" width="20" height="20" fill="#131313" />
<rect x="410" y="30" width="30" height="10" fill="#8454AF" />
<rect x="150" y="40" width="10" height="10" fill="#8454AF" />
<rect x="160" y="40" width="30" height="20" fill="#131313" />
<rect x="210" y="40" width="10" height="10" fill="#131313" />
<rect x="220" y="40" width="30" height="10" fill="#FFFFFF" />
<rect x="250" y="40" width="100" height="50" fill="#121212" />
<rect x="350" y="40" width="30" height="10" fill="#FFFFFF" />
<rect x="380" y="40" width="10" height="10" fill="#131313" />
<rect x="410" y="40" width="30" height="20" fill="#131313" />
<rect x="440" y="40" width="10" height="10" fill="#8454AF" />
<rect x="130" y="50" width="20" height="10" fill="#8454AF" />
<rect x="150" y="50" width="10" height="30" fill="#131313" />
<rect x="190" y="50" width="30" height="10" fill="#FFFFFF" />
<rect x="220" y="50" width="30" height="50" fill="#121212" />
<rect x="350" y="50" width="30" height="50" fill="#121212" />
<rect x="380" y="50" width="30" height="10" fill="#FFFFFF" />
<rect x="440" y="50" width="10" height="30" fill="#131313" />
<rect x="450" y="50" width="20" height="10" fill="#8454AF" />
<rect x="120" y="60" width="10" height="10" fill="#8454AF" />
<rect x="130" y="60" width="20" height="20" fill="#131313" />
<rect x="160" y="60" width="10" height="10" fill="#131313" />
<rect x="170" y="60" width="20" height="10" fill="#FFFFFF" />
<rect x="190" y="60" width="30" height="50" fill="#121212" />
<rect x="380" y="60" width="30" height="50" fill="#121212" />
<rect x="410" y="60" width="20" height="10" fill="#FFFFFF" />
<rect x="430" y="60" width="10" height="10" fill="#131313" />
<rect x="450" y="60" width="20" height="20" fill="#131313" />
<rect x="470" y="60" width="10" height="10" fill="#8454AF" />
<rect x="110" y="70" width="10" height="10" fill="#8454AF" />
<rect x="120" y="70" width="10" height="30" fill="#131313" />
<rect x="160" y="70" width="10" height="10" fill="#FFFFFF" />
<rect x="170" y="70" width="20" height="60" fill="#121212" />
<rect x="410" y="70" width="20" height="60" fill="#121212" />
<rect x="430" y="70" width="10" height="10" fill="#FFFFFF" />
<rect x="470" y="70" width="10" height="30" fill="#131313" />
<rect x="480" y="70" width="10" height="10" fill="#8454AF" />
<rect x="100" y="80" width="10" height="10" fill="#8454AF" />
<rect x="110" y="80" width="10" height="30" fill="#131313" />
<rect x="130" y="80" width="10" height="10" fill="#131313" />
<rect x="140" y="80" width="20" height="10" fill="#FFFFFF" />
<rect x="160" y="80" width="10" height="60" fill="#121212" />
<rect x="430" y="80" width="10" height="60" fill="#121212" />
<rect x="440" y="80" width="20" height="10" fill="#FFFFFF" />
<rect x="460" y="80" width="10" height="10" fill="#131313" />
<rect x="480" y="80" width="10" height="30" fill="#131313" />
<rect x="490" y="80" width="10" height="10" fill="#8454AF" />
<rect x="90" y="90" width="10" height="10" fill="#8454AF" />
<rect x="100" y="90" width="10" height="30" fill="#131313" />
<rect x="130" y="90" width="10" height="10" fill="#FFFFFF" />
<rect x="140" y="90" width="20" height="60" fill="#121212" />
<rect x="250" y="90" width="10" height="10" fill="#121212" />
<rect x="260" y="90" width="80" height="10" fill="#252525" />
<rect x="340" y="90" width="10" height="10" fill="#121212" />
<rect x="440" y="90" width="20" height="60" fill="#121212" />
<rect x="460" y="90" width="10" height="10" fill="#FFFFFF" />
<rect x="490" y="90" width="10" height="30" fill="#131313" />
<rect x="500" y="90" width="10" height="10" fill="#8454AF" />
<rect x="80" y="100" width="10" height="10" fill="#8454AF" />
<rect x="90" y="100" width="10" height="30" fill="#131313" />
<rect x="120" y="100" width="10" height="10" fill="#FFFFFF" />
<rect x="130" y="100" width="10" height="80" fill="#121212" />
<rect x="220" y="100" width="10" height="10" fill="#121212" />
<rect x="230" y="100" width="30" height="10" fill="#252525" />
<rect x="260" y="100" width="80" height="30" fill="#121212" />
<rect x="340" y="100" width="30" height="10" fill="#252525" />
<rect x="370" y="100" width="10" height="10" fill="#121212" />
<rect x="460" y="100" width="10" height="80" fill="#121212" />
<rect x="470" y="100" width="10" height="10" fill="#FFFFFF" />
<rect x="500" y="100" width="10" height="30" fill="#131313" />
<rect x="510" y="100" width="10" height="10" fill="#8454AF" />
<rect x="70" y="110" width="10" height="10" fill="#8454AF" />
<rect x="80" y="110" width="10" height="30" fill="#131313" />
<rect x="110" y="110" width="10" height="10" fill="#FFFFFF" />
<rect x="120" y="110" width="10" height="80" fill="#121212" />
<rect x="190" y="110" width="20" height="10" fill="#121212" />
<rect x="210" y="110" width="20" height="10" fill="#252525" />
<rect x="230" y="110" width="30" height="30" fill="#121212" />
<rect x="340" y="110" width="30" height="30" fill="#121212" />
<rect x="370" y="110" width="20" height="10" fill="#252525" />
<rect x="390" y="110" width="20" height="10" fill="#121212" />
<rect x="470" y="110" width="10" height="80" fill="#121212" />
<rect x="480" y="110" width="10" height="10" fill="#FFFFFF" />
<rect x="510" y="110" width="10" height="30" fill="#131313" />
<rect x="520" y="110" width="10" height="10" fill="#8454AF" />
<rect x="60" y="120" width="10" height="10" fill="#8454AF" />
<rect x="70" y="120" width="10" height="40" fill="#131313" />
<rect x="100" y="120" width="10" height="10" fill="#FFFFFF" />
<rect x="110" y="120" width="10" height="90" fill="#121212" />
<rect x="190" y="120" width="20" height="10" fill="#252525" />
<rect x="210" y="120" width="20" height="30" fill="#121212" />
<rect x="370" y="120" width="20" height="30" fill="#121212" />
<rect x="390" y="120" width="20" height="10" fill="#252525" />
<rect x="480" y="120" width="10" height="90" fill="#121212" />
<rect x="490" y="120" width="10" height="10" fill="#FFFFFF" />
<rect x="520" y="120" width="10" height="40" fill="#131313" />
<rect x="530" y="120" width="10" height="10" fill="#8454AF" />
<rect x="50" y="130" width="10" height="20" fill="#8454AF" />
<rect x="60" y="130" width="10" height="40" fill="#131313" />
<rect x="90" y="130" width="10" height="10" fill="#FFFFFF" />
<rect x="100" y="130" width="10" height="100" fill="#121212" />
<rect x="170" y="130" width="10" height="10" fill="#121212" />
<rect x="180" y="130" width="10" height="10" fill="#252525" />
<rect x="190" y="130" width="20" height="30" fill="#121212" />
<rect x="260" y="130" width="80" height="10" fill="#252525" />
<rect x="390" y="130" width="20" height="30" fill="#121212" />
<rect x="410" y="130" width="10" height="10" fill="#252525" />
<rect x="420" y="130" width="10" height="10" fill="#121212" />
<rect x="490" y="130" width="10" height="100" fill="#121212" />
<rect x="500" y="130" width="10" height="10" fill="#FFFFFF" />
<rect x="530" y="130" width="10" height="40" fill="#131313" />
<rect x="540" y="130" width="10" height="20" fill="#8454AF" />
<rect x="80" y="140" width="10" height="20" fill="#FFFFFF" />
<rect x="90" y="140" width="10" height="120" fill="#121212" />
<rect x="160" y="140" width="20" height="10" fill="#252525" />
<rect x="180" y="140" width="10" height="40" fill="#121212" />
<rect x="230" y="140" width="10" height="10" fill="#121212" />
<rect x="240" y="140" width="20" height="10" fill="#252525" />
<rect x="260" y="140" width="80" height="90" fill="#121212" />
<rect x="340" y="140" width="20" height="10" fill="#252525" />
<rect x="360" y="140" width="10" height="10" fill="#121212" />
<rect x="410" y="140" width="10" height="40" fill="#121212" />
<rect x="420" y="140" width="20" height="10" fill="#252525" />
<rect x="500" y="140" width="10" height="120" fill="#121212" />
<rect x="510" y="140" width="10" height="20" fill="#FFFFFF" />
<rect x="40" y="150" width="10" height="10" fill="#8454AF" />
<rect x="50" y="150" width="10" height="40" fill="#131313" />
<rect x="140" y="150" width="10" height="10" fill="#121212" />
<rect x="150" y="150" width="10" height="10" fill="#252525" />
<rect x="160" y="150" width="20" height="40" fill="#121212" />
<rect x="210" y="150" width="10" height="10" fill="#121212" />
<rect x="220" y="150" width="20" height="10" fill="#252525" />
<rect x="240" y="150" width="20" height="100" fill="#121212" />
<rect x="340" y="150" width="20" height="100" fill="#121212" />
<rect x="360" y="150" width="20" height="10" fill="#252525" />
<rect x="380" y="150" width="10" height="10" fill="#121212" />
<rect x="420" y="150" width="20" height="40" fill="#121212" />
<rect x="440" y="150" width="10" height="10" fill="#252525" />
<rect x="450" y="150" width="10" height="10" fill="#121212" />
<rect x="540" y="150" width="10" height="40" fill="#131313" />
<rect x="550" y="150" width="10" height="10" fill="#8454AF" />
<rect x="30" y="160" width="10" height="30" fill="#8454AF" />
<rect x="40" y="160" width="10" height="60" fill="#131313" />
<rect x="70" y="160" width="10" height="10" fill="#FFFFFF" />
<rect x="80" y="160" width="10" height="280" fill="#121212" />
<rect x="140" y="160" width="10" height="20" fill="#252525" />
<rect x="150" y="160" width="10" height="60" fill="#121212" />
<rect x="190" y="160" width="10" height="10" fill="#121212" />
<rect x="200" y="160" width="20" height="10" fill="#252525" />
<rect x="220" y="160" width="20" height="120" fill="#121212" />
<rect x="360" y="160" width="20" height="120" fill="#121212" />
<rect x="380" y="160" width="20" height="10" fill="#252525" />
<rect x="400" y="160" width="10" height="10" fill="#121212" />
<rect x="440" y="160" width="10" height="60" fill="#121212" />
<rect x="450" y="160" width="10" height="20" fill="#252525" />
<rect x="510" y="160" width="10" height="280" fill="#121212" />
<rect x="520" y="160" width="10" height="10" fill="#FFFFFF" />
<rect x="550" y="160" width="10" height="60" fill="#131313" />
<rect x="560" y="160" width="10" height="30" fill="#8454AF" />
<rect x="60" y="170" width="10" height="20" fill="#FFFFFF" />
<rect x="70" y="170" width="10" height="260" fill="#121212" />
<rect x="190" y="170" width="10" height="10" fill="#252525" />
<rect x="200" y="170" width="20" height="260" fill="#121212" />
<rect x="380" y="170" width="20" height="260" fill="#121212" />
<rect x="400" y="170" width="10" height="10" fill="#252525" />
<rect x="520" y="170" width="10" height="260" fill="#121212" />
<rect x="530" y="170" width="10" height="20" fill="#FFFFFF" />
<rect x="130" y="180" width="10" height="10" fill="#252525" />
<rect x="140" y="180" width="10" height="60" fill="#121212" />
<rect x="180" y="180" width="10" height="10" fill="#252525" />
<rect x="190" y="180" width="10" height="240" fill="#121212" />
<rect x="400" y="180" width="10" height="240" fill="#121212" />
<rect x="410" y="180" width="10" height="10" fill="#252525" />
<rect x="450" y="180" width="10" height="60" fill="#121212" />
<rect x="460" y="180" width="10" height="10" fill="#252525" />
<rect x="20" y="190" width="10" height="20" fill="#8454AF" />
<rect x="30" y="190" width="10" height="60" fill="#131313" />
<rect x="50" y="190" width="10" height="30" fill="#FFFFFF" />
<rect x="60" y="190" width="10" height="220" fill="#121212" />
<rect x="120" y="190" width="10" height="20" fill="#252525" />
<rect x="130" y="190" width="10" height="70" fill="#121212" />
<rect x="160" y="190" width="10" height="10" fill="#121212" />
<rect x="170" y="190" width="10" height="10" fill="#252525" />
<rect x="180" y="190" width="10" height="220" fill="#121212" />
<rect x="410" y="190" width="10" height="220" fill="#121212" />
<rect x="420" y="190" width="10" height="10" fill="#252525" />
<rect x="430" y="190" width="10" height="10" fill="#121212" />
<rect x="460" y="190" width="10" height="70" fill="#121212" />
<rect x="470" y="190" width="10" height="20" fill="#252525" />
<rect x="530" y="190" width="10" height="220" fill="#121212" />
<rect x="540" y="190" width="10" height="30" fill="#FFFFFF" />
<rect x="560" y="190" width="10" height="60" fill="#131313" />
<rect x="570" y="190" width="10" height="20" fill="#8454AF" />
<rect x="160" y="200" width="10" height="20" fill="#252525" />
<rect x="170" y="200" width="10" height="200" fill="#121212" />
<rect x="420" y="200" width="10" height="200" fill="#121212" />
<rect x="430" y="200" width="10" height="20" fill="#252525" />
<rect x="10" y="210" width="10" height="40" fill="#8454AF" />
<rect x="20" y="210" width="10" height="180" fill="#131313" />
<rect x="110" y="210" width="10" height="20" fill="#252525" />
<rect x="120" y="210" width="10" height="180" fill="#121212" />
<rect x="470" y="210" width="10" height="180" fill="#121212" />
<rect x="480" y="210" width="10" height="20" fill="#252525" />
<rect x="570" y="210" width="10" height="180" fill="#131313" />
<rect x="580" y="210" width="10" height="40" fill="#8454AF" />
<rect x="40" y="220" width="10" height="30" fill="#FFFFFF" />
<rect x="50" y="220" width="10" height="160" fill="#121212" />
<rect x="150" y="220" width="10" height="20" fill="#252525" />
<rect x="160" y="220" width="10" height="160" fill="#121212" />
<rect x="430" y="220" width="10" height="160" fill="#121212" />
<rect x="440" y="220" width="10" height="20" fill="#252525" />
<rect x="540" y="220" width="10" height="160" fill="#121212" />
<rect x="550" y="220" width="10" height="30" fill="#FFFFFF" />
<rect x="100" y="230" width="10" height="30" fill="#252525" />
<rect x="110" y="230" width="10" height="140" fill="#121212" />
<rect x="260" y="230" width="20" height="10" fill="#121212" />
<rect x="280" y="230" width="40" height="10" fill="#8454AF" />
<rect x="320" y="230" width="20" height="10" fill="#121212" />
<rect x="480" y="230" width="10" height="140" fill="#121212" />
<rect x="490" y="230" width="10" height="30" fill="#252525" />
<rect x="140" y="240" width="10" height="20" fill="#252525" />
<rect x="150" y="240" width="10" height="120" fill="#121212" />
<rect x="260" y="240" width="20" height="10" fill="#8454AF" />
<rect x="280" y="240" width="40" height="10" fill="#FFFFFF" />
<rect x="320" y="240" width="20" height="10" fill="#8454AF" />
<rect x="440" y="240" width="10" height="120" fill="#121212" />
<rect x="450" y="240" width="10" height="20" fill="#252525" />
<rect x="0" y="250" width="10" height="100" fill="#8454AF" />
<rect x="10" y="250" width="10" height="100" fill="#131313" />
<rect x="30" y="250" width="10" height="100" fill="#FFFFFF" />
<rect x="40" y="250" width="10" height="100" fill="#121212" />
<rect x="240" y="250" width="10" height="10" fill="#121212" />
<rect x="250" y="250" width="10" height="10" fill="#8454AF" />
<rect x="260" y="250" width="20" height="10" fill="#FFFFFF" />
<rect x="280" y="250" width="40" height="10" fill="#8454AF" />
<rect x="320" y="250" width="20" height="10" fill="#FFFFFF" />
<rect x="340" y="250" width="10" height="10" fill="#8454AF" />
<rect x="350" y="250" width="10" height="10" fill="#121212" />
<rect x="550" y="250" width="10" height="100" fill="#121212" />
<rect x="560" y="250" width="10" height="100" fill="#FFFFFF" />
<rect x="580" y="250" width="10" height="100" fill="#131313" />
<rect x="590" y="250" width="10" height="100" fill="#8454AF" />
<rect x="90" y="260" width="10" height="80" fill="#252525" />
<rect x="100" y="260" width="10" height="80" fill="#121212" />
<rect x="130" y="260" width="10" height="80" fill="#252525" />
<rect x="140" y="260" width="10" height="80" fill="#121212" />
<rect x="240" y="260" width="10" height="20" fill="#8454AF" />
<rect x="250" y="260" width="20" height="10" fill="#FFFFFF" />
<rect x="270" y="260" width="10" height="10" fill="#8454AF" />
<rect x="280" y="260" width="40" height="10" fill="#121212" />
<rect x="320" y="260" width="10" height="10" fill="#8454AF" />
<rect x="330" y="260" width="20" height="10" fill="#FFFFFF" />
<rect x="350" y="260" width="10" height="20" fill="#8454AF" />
<rect x="450" y="260" width="10" height="80" fill="#121212" />
<rect x="460" y="260" width="10" height="80" fill="#252525" />
<rect x="490" y="260" width="10" height="80" fill="#121212" />
<rect x="500" y="260" width="10" height="80" fill="#252525" />
<rect x="250" y="270" width="10" height="10" fill="#FFFFFF" />
<rect x="260" y="270" width="10" height="10" fill="#8454AF" />
<rect x="270" y="270" width="10" height="10" fill="#121212" />
<rect x="320" y="270" width="10" height="10" fill="#121212" />
<rect x="330" y="270" width="10" height="10" fill="#8454AF" />
<rect x="340" y="270" width="10" height="10" fill="#FFFFFF" />
<rect x="220" y="280" width="10" height="160" fill="#121212" />
<rect x="230" y="280" width="10" height="40" fill="#8454AF" />
<rect x="240" y="280" width="10" height="40" fill="#FFFFFF" />
<rect x="250" y="280" width="10" height="40" fill="#8454AF" />
<rect x="260" y="280" width="10" height="40" fill="#121212" />
<rect x="330" y="280" width="10" height="40" fill="#121212" />
<rect x="340" y="280" width="10" height="40" fill="#8454AF" />
<rect x="350" y="280" width="10" height="40" fill="#FFFFFF" />
<rect x="360" y="280" width="10" height="40" fill="#8454AF" />
<rect x="370" y="280" width="10" height="160" fill="#121212" />
<rect x="230" y="320" width="10" height="120" fill="#121212" />
<rect x="240" y="320" width="10" height="20" fill="#8454AF" />
<rect x="250" y="320" width="10" height="20" fill="#FFFFFF" />
<rect x="260" y="320" width="10" height="10" fill="#8454AF" />
<rect x="270" y="320" width="10" height="10" fill="#121212" />
<rect x="320" y="320" width="10" height="10" fill="#121212" />
<rect x="330" y="320" width="10" height="10" fill="#8454AF" />
<rect x="340" y="320" width="10" height="20" fill="#FFFFFF" />
<rect x="350" y="320" width="10" height="20" fill="#8454AF" />
<rect x="360" y="320" width="10" height="120" fill="#121212" />
<rect x="260" y="330" width="10" height="20" fill="#FFFFFF" />
<rect x="270" y="330" width="10" height="10" fill="#8454AF" />
<rect x="280" y="330" width="40" height="10" fill="#121212" />
<rect x="320" y="330" width="10" height="10" fill="#8454AF" />
<rect x="330" y="330" width="10" height="20" fill="#FFFFFF" />
<rect x="90" y="340" width="10" height="120" fill="#121212" />
<rect x="100" y="340" width="10" height="30" fill="#252525" />
<rect x="130" y="340" width="10" height="70" fill="#121212" />
<rect x="140" y="340" width="10" height="20" fill="#252525" />
<rect x="240" y="340" width="10" height="110" fill="#121212" />
<rect x="250" y="340" width="10" height="10" fill="#8454AF" />
<rect x="270" y="340" width="10" height="10" fill="#FFFFFF" />
<rect x="280" y="340" width="40" height="10" fill="#8454AF" />
<rect x="320" y="340" width="10" height="10" fill="#FFFFFF" />
<rect x="340" y="340" width="10" height="10" fill="#8454AF" />
<rect x="350" y="340" width="10" height="110" fill="#121212" />
<rect x="450" y="340" width="10" height="20" fill="#252525" />
<rect x="460" y="340" width="10" height="70" fill="#121212" />
<rect x="490" y="340" width="10" height="30" fill="#252525" />
<rect x="500" y="340" width="10" height="120" fill="#121212" />
<rect x="10" y="350" width="10" height="40" fill="#8454AF" />
<rect x="30" y="350" width="10" height="60" fill="#131313" />
<rect x="40" y="350" width="10" height="30" fill="#FFFFFF" />
<rect x="250" y="350" width="10" height="100" fill="#121212" />
<rect x="260" y="350" width="20" height="10" fill="#8454AF" />
<rect x="280" y="350" width="40" height="10" fill="#FFFFFF" />
<rect x="320" y="350" width="20" height="10" fill="#8454AF" />
<rect x="340" y="350" width="10" height="100" fill="#121212" />
<rect x="550" y="350" width="10" height="30" fill="#FFFFFF" />
<rect x="560" y="350" width="10" height="60" fill="#131313" />
<rect x="580" y="350" width="10" height="40" fill="#8454AF" />
<rect x="140" y="360" width="10" height="60" fill="#121212" />
<rect x="150" y="360" width="10" height="20" fill="#252525" />
<rect x="260" y="360" width="20" height="100" fill="#121212" />
<rect x="280" y="360" width="40" height="10" fill="#8454AF" />
<rect x="320" y="360" width="20" height="100" fill="#121212" />
<rect x="440" y="360" width="10" height="20" fill="#252525" />
<rect x="450" y="360" width="10" height="60" fill="#121212" />
<rect x="100" y="370" width="10" height="100" fill="#121212" />
<rect x="110" y="370" width="10" height="20" fill="#252525" />
<rect x="280" y="370" width="40" height="90" fill="#121212" />
<rect x="480" y="370" width="10" height="20" fill="#252525" />
<rect x="490" y="370" width="10" height="100" fill="#121212" />
<rect x="40" y="380" width="10" height="60" fill="#131313" />
<rect x="50" y="380" width="10" height="30" fill="#FFFFFF" />
<rect x="150" y="380" width="10" height="60" fill="#121212" />
<rect x="160" y="380" width="10" height="20" fill="#252525" />
<rect x="430" y="380" width="10" height="20" fill="#252525" />
<rect x="440" y="380" width="10" height="60" fill="#121212" />
<rect x="540" y="380" width="10" height="30" fill="#FFFFFF" />
<rect x="550" y="380" width="10" height="60" fill="#131313" />
<rect x="20" y="390" width="10" height="20" fill="#8454AF" />
<rect x="110" y="390" width="10" height="90" fill="#121212" />
<rect x="120" y="390" width="10" height="20" fill="#252525" />
<rect x="470" y="390" width="10" height="20" fill="#252525" />
<rect x="480" y="390" width="10" height="90" fill="#121212" />
<rect x="570" y="390" width="10" height="20" fill="#8454AF" />
<rect x="160" y="400" width="10" height="50" fill="#121212" />
<rect x="170" y="400" width="10" height="10" fill="#252525" />
<rect x="420" y="400" width="10" height="10" fill="#252525" />
<rect x="430" y="400" width="10" height="50" fill="#121212" />
<rect x="30" y="410" width="10" height="30" fill="#8454AF" />
<rect x="50" y="410" width="10" height="40" fill="#131313" />
<rect x="60" y="410" width="10" height="20" fill="#FFFFFF" />
<rect x="120" y="410" width="10" height="80" fill="#121212" />
<rect x="130" y="410" width="10" height="10" fill="#252525" />
<rect x="170" y="410" width="10" height="40" fill="#121212" />
<rect x="180" y="410" width="10" height="10" fill="#252525" />
<rect x="410" y="410" width="10" height="10" fill="#252525" />
<rect x="420" y="410" width="10" height="40" fill="#121212" />
<rect x="460" y="410" width="10" height="10" fill="#252525" />
<rect x="470" y="410" width="10" height="80" fill="#121212" />
<rect x="530" y="410" width="10" height="20" fill="#FFFFFF" />
<rect x="540" y="410" width="10" height="40" fill="#131313" />
<rect x="560" y="410" width="10" height="30" fill="#8454AF" />
<rect x="130" y="420" width="10" height="80" fill="#121212" />
<rect x="140" y="420" width="10" height="20" fill="#252525" />
<rect x="180" y="420" width="10" height="40" fill="#121212" />
<rect x="190" y="420" width="10" height="10" fill="#252525" />
<rect x="400" y="420" width="10" height="10" fill="#252525" />
<rect x="410" y="420" width="10" height="40" fill="#121212" />
<rect x="450" y="420" width="10" height="20" fill="#252525" />
<rect x="460" y="420" width="10" height="80" fill="#121212" />
<rect x="60" y="430" width="10" height="40" fill="#131313" />
<rect x="70" y="430" width="10" height="10" fill="#FFFFFF" />
<rect x="190" y="430" width="10" height="40" fill="#121212" />
<rect x="200" y="430" width="20" height="10" fill="#252525" />
<rect x="380" y="430" width="20" height="10" fill="#252525" />
<rect x="400" y="430" width="10" height="40" fill="#121212" />
<rect x="520" y="430" width="10" height="10" fill="#FFFFFF" />
<rect x="530" y="430" width="10" height="40" fill="#131313" />
<rect x="40" y="440" width="10" height="10" fill="#8454AF" />
<rect x="70" y="440" width="10" height="40" fill="#131313" />
<rect x="80" y="440" width="10" height="20" fill="#FFFFFF" />
<rect x="140" y="440" width="10" height="70" fill="#121212" />
<rect x="150" y="440" width="10" height="10" fill="#252525" />
<rect x="200" y="440" width="20" height="30" fill="#121212" />
<rect x="220" y="440" width="20" height="10" fill="#252525" />
<rect x="360" y="440" width="20" height="10" fill="#252525" />
<rect x="380" y="440" width="20" height="30" fill="#121212" />
<rect x="440" y="440" width="10" height="10" fill="#252525" />
<rect x="450" y="440" width="10" height="70" fill="#121212" />
<rect x="510" y="440" width="10" height="20" fill="#FFFFFF" />
<rect x="520" y="440" width="10" height="40" fill="#131313" />
<rect x="550" y="440" width="10" height="10" fill="#8454AF" />
<rect x="50" y="450" width="10" height="20" fill="#8454AF" />
<rect x="150" y="450" width="10" height="60" fill="#121212" />
<rect x="160" y="450" width="20" height="10" fill="#252525" />
<rect x="220" y="450" width="20" height="30" fill="#121212" />
<rect x="240" y="450" width="20" height="10" fill="#252525" />
<rect x="340" y="450" width="20" height="10" fill="#252525" />
<rect x="360" y="450" width="20" height="30" fill="#121212" />
<rect x="420" y="450" width="20" height="10" fill="#252525" />
<rect x="440" y="450" width="10" height="60" fill="#121212" />
<rect x="540" y="450" width="10" height="20" fill="#8454AF" />
<rect x="80" y="460" width="10" height="30" fill="#131313" />
<rect x="90" y="460" width="10" height="10" fill="#FFFFFF" />
<rect x="160" y="460" width="20" height="60" fill="#121212" />
<rect x="180" y="460" width="10" height="10" fill="#252525" />
<rect x="240" y="460" width="20" height="30" fill="#121212" />
<rect x="260" y="460" width="80" height="10" fill="#252525" />
<rect x="340" y="460" width="20" height="30" fill="#121212" />
<rect x="410" y="460" width="10" height="10" fill="#252525" />
<rect x="420" y="460" width="20" height="60" fill="#121212" />
<rect x="500" y="460" width="10" height="10" fill="#FFFFFF" />
<rect x="510" y="460" width="10" height="30" fill="#131313" />
<rect x="60" y="470" width="10" height="10" fill="#8454AF" />
<rect x="90" y="470" width="10" height="30" fill="#131313" />
<rect x="100" y="470" width="10" height="10" fill="#FFFFFF" />
<rect x="180" y="470" width="10" height="60" fill="#121212" />
<rect x="190" y="470" width="20" height="10" fill="#252525" />
<rect x="210" y="470" width="10" height="10" fill="#121212" />
<rect x="260" y="470" width="80" height="30" fill="#121212" />
<rect x="380" y="470" width="10" height="10" fill="#121212" />
<rect x="390" y="470" width="20" height="10" fill="#252525" />
<rect x="410" y="470" width="10" height="60" fill="#121212" />
<rect x="490" y="470" width="10" height="10" fill="#FFFFFF" />
<rect x="500" y="470" width="10" height="30" fill="#131313" />
<rect x="530" y="470" width="10" height="10" fill="#8454AF" />
<rect x="70" y="480" width="10" height="10" fill="#8454AF" />
<rect x="100" y="480" width="10" height="30" fill="#131313" />
<rect x="110" y="480" width="10" height="10" fill="#FFFFFF" />
<rect x="190" y="480" width="20" height="60" fill="#121212" />
<rect x="210" y="480" width="20" height="10" fill="#252525" />
<rect x="230" y="480" width="10" height="10" fill="#121212" />
<rect x="360" y="480" width="10" height="10" fill="#121212" />
<rect x="370" y="480" width="20" height="10" fill="#252525" />
<rect x="390" y="480" width="20" height="60" fill="#121212" />
<rect x="480" y="480" width="10" height="10" fill="#FFFFFF" />
<rect x="490" y="480" width="10" height="30" fill="#131313" />
<rect x="520" y="480" width="10" height="10" fill="#8454AF" />
<rect x="80" y="490" width="10" height="10" fill="#8454AF" />
<rect x="110" y="490" width="10" height="30" fill="#131313" />
<rect x="120" y="490" width="10" height="10" fill="#FFFFFF" />
<rect x="210" y="490" width="20" height="50" fill="#121212" />
<rect x="230" y="490" width="30" height="10" fill="#252525" />
<rect x="340" y="490" width="30" height="10" fill="#252525" />
<rect x="370" y="490" width="20" height="50" fill="#121212" />
<rect x="470" y="490" width="10" height="10" fill="#FFFFFF" />
<rect x="480" y="490" width="10" height="30" fill="#131313" />
<rect x="510" y="490" width="10" height="10" fill="#8454AF" />
<rect x="90" y="500" width="10" height="10" fill="#8454AF" />
<rect x="120" y="500" width="10" height="30" fill="#131313" />
<rect x="130" y="500" width="10" height="10" fill="#FFFFFF" />
<rect x="230" y="500" width="30" height="50" fill="#121212" />
<rect x="260" y="500" width="80" height="10" fill="#252525" />
<rect x="340" y="500" width="30" height="50" fill="#121212" />
<rect x="460" y="500" width="10" height="10" fill="#FFFFFF" />
<rect x="470" y="500" width="10" height="30" fill="#131313" />
<rect x="500" y="500" width="10" height="10" fill="#8454AF" />
<rect x="100" y="510" width="10" height="10" fill="#8454AF" />
<rect x="130" y="510" width="10" height="30" fill="#131313" />
<rect x="140" y="510" width="20" height="10" fill="#FFFFFF" />
<rect x="260" y="510" width="80" height="50" fill="#121212" />
<rect x="440" y="510" width="20" height="10" fill="#FFFFFF" />
<rect x="460" y="510" width="10" height="30" fill="#131313" />
<rect x="490" y="510" width="10" height="10" fill="#8454AF" />
<rect x="110" y="520" width="10" height="10" fill="#8454AF" />
<rect x="140" y="520" width="20" height="20" fill="#131313" />
<rect x="160" y="520" width="10" height="10" fill="#FFFFFF" />
<rect x="170" y="520" width="10" height="10" fill="#121212" />
<rect x="420" y="520" width="10" height="10" fill="#121212" />
<rect x="430" y="520" width="10" height="10" fill="#FFFFFF" />
<rect x="440" y="520" width="20" height="20" fill="#131313" />
<rect x="480" y="520" width="10" height="10" fill="#8454AF" />
<rect x="120" y="530" width="10" height="10" fill="#8454AF" />
<rect x="160" y="530" width="10" height="30" fill="#131313" />
<rect x="170" y="530" width="20" height="10" fill="#FFFFFF" />
<rect x="410" y="530" width="20" height="10" fill="#FFFFFF" />
<rect x="430" y="530" width="10" height="30" fill="#131313" />
<rect x="470" y="530" width="10" height="10" fill="#8454AF" />
<rect x="130" y="540" width="20" height="10" fill="#8454AF" />
<rect x="150" y="540" width="10" height="10" fill="#131313" />
<rect x="170" y="540" width="20" height="20" fill="#131313" />
<rect x="190" y="540" width="30" height="10" fill="#FFFFFF" />
<rect x="220" y="540" width="10" height="10" fill="#121212" />
<rect x="370" y="540" width="10" height="10" fill="#121212" />
<rect x="380" y="540" width="30" height="10" fill="#FFFFFF" />
<rect x="410" y="540" width="20" height="20" fill="#131313" />
<rect x="440" y="540" width="10" height="10" fill="#131313" />
<rect x="450" y="540" width="20" height="10" fill="#8454AF" />
<rect x="150" y="550" width="10" height="10" fill="#8454AF" />
<rect x="190" y="550" width="30" height="20" fill="#131313" />
<rect x="220" y="550" width="30" height="10" fill="#FFFFFF" />
<rect x="250" y="550" width="10" height="10" fill="#121212" />
<rect x="340" y="550" width="10" height="10" fill="#121212" />
<rect x="350" y="550" width="30" height="10" fill="#FFFFFF" />
<rect x="380" y="550" width="30" height="20" fill="#131313" />
<rect x="440" y="550" width="10" height="10" fill="#8454AF" />
<rect x="160" y="560" width="30" height="10" fill="#8454AF" />
<rect x="220" y="560" width="30" height="20" fill="#131313" />
<rect x="250" y="560" width="100" height="10" fill="#FFFFFF" />
<rect x="350" y="560" width="30" height="20" fill="#131313" />
<rect x="410" y="560" width="30" height="10" fill="#8454AF" />
<rect x="190" y="570" width="20" height="10" fill="#8454AF" />
<rect x="210" y="570" width="10" height="10" fill="#131313" />
<rect x="250" y="570" width="100" height="20" fill="#131313" />
<rect x="380" y="570" width="10" height="10" fill="#131313" />
<rect x="390" y="570" width="20" height="10" fill="#8454AF" />
<rect x="210" y="580" width="40" height="10" fill="#8454AF" />
<rect x="350" y="580" width="40" height="10" fill="#8454AF" />
<rect x="250" y="590" width="100" height="10" fill="#8454AF" />
</svg>